<?xml version="1.0" encoding="UTF-8" standalone="no"?>
<!DOCTYPE svg PUBLIC "-//W3C//DTD SVG 1.1//EN" "http://www.w3.org/Graphics/SVG/1.1/DTD/svg11.dtd">
<svg xmlns="http://www.w3.org/2000/svg" version="1.1" viewBox="0.00 0.00 2398.00 658.00">
<g stroke-width="2.00" fill="none" stroke-linecap="butt">
<path stroke="#80a2c9" vector-effect="non-scaling-stroke" d="
  M 413.13 152.36
  A 0.41 0.41 0.0 0 0 412.42 152.07
  Q 373.79 192.30 335.69 228.94
  Q 313.88 249.91 293.59 267.59
  C 279.95 279.48 267.25 289.92 251.71 298.05
  C 238.57 304.93 225.11 310.64 210.84 313.30
  C 191.97 316.83 172.62 312.43 169.86 290.19
  C 168.00 275.17 174.91 258.47 182.49 245.73
  C 214.03 192.73 280.22 170.16 337.61 195.21
  A 1.22 1.20 34.1 0 0 338.95 194.96
  L 350.56 183.42
  A 0.54 0.53 35.4 0 0 350.41 182.56
  Q 334.61 174.97 316.89 171.13
  C 228.70 152.00 147.06 222.14 148.53 310.97
  C 149.07 343.92 161.81 375.13 182.37 401.04
  A 0.51 0.50 -41.5 0 0 183.13 401.08
  L 412.69 173.09
  A 1.52 1.50 67.9 0 0 413.13 172.02
  L 413.13 152.36"
/>
<path stroke="#80a2c9" vector-effect="non-scaling-stroke" d="
  M 1596.18 212.26
  A 17.88 17.88 0.0 0 0 1578.30 194.38
  A 17.88 17.88 0.0 0 0 1560.42 212.26
  A 17.88 17.88 0.0 0 0 1578.30 230.14
  A 17.88 17.88 0.0 0 0 1596.18 212.26"
/>
<path stroke="#80a2c9" vector-effect="non-scaling-stroke" d="
  M 1937.53 212.25
  A 17.89 17.89 0.0 0 0 1919.64 194.36
  A 17.89 17.89 0.0 0 0 1901.75 212.25
  A 17.89 17.89 0.0 0 0 1919.64 230.14
  A 17.89 17.89 0.0 0 0 1937.53 212.25"
/>
<path stroke="#80a2c9" vector-effect="non-scaling-stroke" d="
  M 1403.42 213.50
  A 17.89 17.89 0.0 0 0 1385.53 195.61
  A 17.89 17.89 0.0 0 0 1367.64 213.50
  A 17.89 17.89 0.0 0 0 1385.53 231.39
  A 17.89 17.89 0.0 0 0 1403.42 213.50"
/>
<path stroke="#80a2c9" vector-effect="non-scaling-stroke" d="
  M 1078.05 261.34
  Q 1077.97 250.83 1078.02 242.25
  Q 1078.07 235.70 1078.81 233.30
  Q 1083.20 219.12 1098.58 220.93
  C 1103.87 221.55 1109.23 224.37 1112.21 225.53
  A 0.65 0.65 0.0 0 0 1113.03 225.21
  L 1122.39 206.33
  A 0.84 0.84 0.0 0 0 1122.03 205.22
  C 1105.02 196.23 1081.04 194.14 1064.81 203.95
  C 1044.72 216.09 1046.18 240.61 1047.81 261.42
  A 0.53 0.52 -2.0 0 1 1047.28 261.98
  L 1034.53 261.98
  A 0.55 0.55 0.0 0 0 1033.98 262.53
  L 1033.98 283.24
  A 0.52 0.52 0.0 0 0 1034.50 283.76
  L 1046.64 283.76
  A 0.60 0.60 0.0 0 1 1047.24 284.36
  L 1047.24 404.16
  A 0.58 0.58 0.0 0 0 1047.82 404.74
  L 1077.84 404.74
  A 0.41 0.40 -0.0 0 0 1078.25 404.34
  L 1078.25 284.07
  A 0.30 0.30 0.0 0 1 1078.55 283.77
  L 1106.65 283.77
  A 0.82 0.81 -79.5 0 0 1107.41 283.24
  L 1114.92 262.82
  A 0.62 0.61 10.2 0 0 1114.34 261.99
  L 1078.70 261.99
  A 0.65 0.65 0.0 0 1 1078.05 261.34"
/>
<path stroke="#80a2c9" vector-effect="non-scaling-stroke" d="
  M 569.14 209.75
  L 537.30 209.75
  A 0.34 0.33 90.0 0 0 536.97 210.09
  Q 537.04 265.53 536.98 369.75
  Q 536.98 379.50 536.51 387.75
  Q 536.08 395.54 534.91 400.41
  C 531.91 412.87 521.27 423.00 510.43 429.18
  A 0.65 0.65 0.0 0 0 510.27 430.18
  L 524.83 446.57
  A 0.72 0.72 0.0 0 0 525.63 446.77
  Q 537.00 442.44 546.63 434.93
  Q 565.77 420.00 568.45 396.31
  Q 569.70 385.21 569.71 379.00
  Q 569.77 332.78 569.72 210.33
  A 0.58 0.58 0.0 0 0 569.14 209.75"
/>
<path stroke="#e689a2" vector-effect="non-scaling-stroke" d="
  M 356.65 238.01
  A 0.31 0.30 23.4 0 0 356.36 238.12
  L 206.85 421.30
  A 0.96 0.95 49.4 0 0 206.77 422.38
  Q 206.80 422.43 207.12 422.63
  C 250.04 449.05 304.76 454.37 350.32 432.36
  C 402.14 407.33 433.18 352.41 428.31 295.65
  Q 424.84 255.06 399.39 221.34
  A 0.57 0.57 0.0 0 0 398.51 221.31
  L 387.59 233.65
  A 0.70 0.69 49.2 0 0 387.53 234.50
  Q 390.72 239.17 391.27 240.00
  C 408.28 265.83 414.91 296.82 409.75 327.16
  Q 402.91 367.43 371.85 396.58
  C 360.06 407.65 344.11 418.23 327.74 419.29
  C 316.53 420.02 303.41 415.78 296.13 407.12
  C 285.92 394.97 283.72 377.39 287.37 362.10
  Q 290.80 347.75 299.81 335.81
  Q 335.46 288.58 356.13 260.61
  A 4.56 4.52 -26.9 0 0 357.03 257.90
  Q 357.09 248.40 357.03 238.50
  Q 357.02 238.07 356.65 238.01"
/>
<path stroke="#80a2c9" vector-effect="non-scaling-stroke" d="
  M 983.28 284.19
  C 996.23 286.27 1007.27 284.73 1017.19 276.10
  A 0.68 0.67 51.7 0 0 1017.29 275.20
  L 1003.49 256.50
  A 0.71 0.70 51.5 0 0 1002.47 256.38
  C 992.98 264.40 980.27 267.99 968.13 264.75
  Q 955.55 261.39 951.81 260.57
  C 920.61 253.77 880.03 264.61 877.02 302.42
  C 875.26 324.59 886.42 340.56 907.80 346.87
  A 0.34 0.34 0.0 0 1 907.80 347.53
  C 894.01 351.67 879.99 358.26 882.42 375.61
  C 884.00 386.83 894.69 390.43 904.50 391.87
  Q 916.20 393.60 931.34 393.48
  C 937.12 393.44 943.06 393.77 949.32 394.81
  C 958.48 396.33 967.12 400.15 968.16 410.53
  C 969.71 426.11 956.06 433.17 942.87 434.60
  C 924.05 436.64 896.01 432.40 905.60 404.99
  A 0.37 0.37 0.0 0 0 905.25 404.50
  L 876.90 404.50
  A 0.78 0.78 0.0 0 0 876.16 405.03
  Q 872.82 414.79 873.65 423.50
  C 876.96 457.98 926.62 460.78 951.47 457.87
  C 975.37 455.07 997.64 443.18 1000.34 417.33
  C 1003.24 389.55 983.93 372.64 957.59 371.39
  C 948.05 370.93 934.49 371.47 923.54 370.40
  Q 922.04 370.26 919.26 368.99
  A 1.70 1.68 -89.7 0 1 918.40 368.11
  C 915.12 360.65 930.83 354.35 935.96 352.45
  A 6.40 6.29 -54.5 0 1 938.12 352.07
  C 969.29 352.26 998.75 331.16 989.28 296.41
  Q 988.29 292.79 983.01 284.59
  A 0.27 0.26 -11.7 0 1 983.28 284.19"
/>
<path stroke="#80a2c9" vector-effect="non-scaling-stroke" d="
  M 2069.16 284.19
  C 2082.11 286.27 2093.14 284.73 2103.06 276.10
  A 0.68 0.67 51.6 0 0 2103.16 275.20
  L 2089.36 256.51
  A 0.71 0.70 51.5 0 0 2088.34 256.39
  C 2078.86 264.41 2066.15 268.00 2054.01 264.76
  Q 2041.43 261.40 2037.69 260.58
  C 2006.50 253.78 1965.92 264.63 1962.92 302.43
  C 1961.16 324.60 1972.32 340.56 1993.70 346.87
  A 0.34 0.34 0.0 0 1 1993.70 347.53
  C 1979.91 351.67 1965.89 358.26 1968.33 375.61
  C 1969.91 386.83 1980.59 390.42 1990.40 391.86
  Q 2002.10 393.59 2017.24 393.47
  C 2023.02 393.43 2028.96 393.76 2035.22 394.80
  C 2044.37 396.32 2053.01 400.14 2054.05 410.51
  C 2055.61 426.09 2041.96 433.15 2028.77 434.58
  C 2009.95 436.62 1981.92 432.39 1991.50 404.98
  A 0.37 0.37 0.0 0 0 1991.15 404.49
  L 1962.81 404.49
  A 0.78 0.78 0.0 0 0 1962.07 405.02
  Q 1958.73 414.78 1959.56 423.49
  C 1962.87 457.96 2012.53 460.76 2037.37 457.85
  C 2061.27 455.05 2083.53 443.15 2086.23 417.31
  C 2089.13 389.53 2069.82 372.63 2043.48 371.38
  C 2033.94 370.92 2020.39 371.46 2009.44 370.39
  Q 2007.94 370.25 2005.16 368.99
  A 1.70 1.68 -89.7 0 1 2004.30 368.11
  C 2001.02 360.65 2016.72 354.35 2021.85 352.45
  A 6.40 6.29 -54.5 0 1 2024.01 352.07
  C 2055.18 352.25 2084.63 331.15 2075.16 296.41
  Q 2074.17 292.79 2068.89 284.59
  A 0.27 0.26 -11.7 0 1 2069.16 284.19"
/>
<path stroke="#80a2c9" vector-effect="non-scaling-stroke" d="
  M 1432.68 370.75
  L 1422.07 392.14
  A 0.85 0.85 0.0 0 0 1422.47 393.28
  Q 1423.44 393.75 1429.65 396.83
  C 1447.68 405.77 1467.37 410.27 1487.68 407.88
  C 1511.66 405.05 1532.86 389.16 1534.30 363.50
  C 1535.56 340.97 1523.55 327.71 1502.09 321.41
  Q 1498.15 320.26 1478.30 315.22
  C 1470.68 313.29 1461.78 309.71 1461.31 300.35
  C 1460.76 289.18 1469.00 281.59 1479.76 280.99
  C 1492.86 280.25 1505.40 284.60 1516.78 290.93
  A 0.82 0.81 -62.4 0 0 1517.91 290.57
  L 1527.88 270.47
  A 0.69 0.69 0.0 0 0 1527.59 269.56
  Q 1503.24 255.94 1475.51 257.45
  C 1445.32 259.09 1422.61 281.06 1428.87 312.22
  C 1431.91 327.35 1444.62 337.87 1459.24 341.28
  Q 1468.02 343.33 1480.17 345.85
  C 1491.58 348.22 1503.08 353.15 1501.96 367.07
  C 1500.93 379.89 1489.09 385.82 1477.46 385.23
  C 1461.87 384.43 1447.07 378.30 1433.32 370.55
  A 0.46 0.46 0.0 0 0 1432.68 370.75"
/>
<path stroke="#80a2c9" vector-effect="non-scaling-stroke" d="
  M 1165.46 279.43
  Q 1165.06 268.46 1160.43 258.81
  A 0.72 0.71 -19.6 0 0 1159.61 258.43
  L 1131.85 265.59
  A 0.41 0.40 -16.5 0 0 1131.56 266.11
  C 1135.84 278.78 1136.59 292.26 1136.53 306.84
  Q 1136.48 317.66 1136.51 404.45
  A 0.28 0.28 0.0 0 0 1136.79 404.73
  L 1167.46 404.73
  A 0.32 0.31 -90.0 0 0 1167.77 404.41
  Q 1167.77 330.73 1167.77 310.00
  Q 1167.77 306.99 1169.33 303.82
  C 1175.24 291.78 1189.02 283.71 1202.19 289.07
  A 0.97 0.96 -70.0 0 0 1203.47 288.47
  L 1212.65 260.92
  A 0.76 0.75 19.8 0 0 1212.20 259.98
  C 1193.43 252.98 1176.54 265.18 1166.18 279.65
  A 0.40 0.40 0.0 0 1 1165.46 279.43"
/>
<path stroke="#80a2c9" vector-effect="non-scaling-stroke" d="
  M 772.31 277.43
  Q 772.28 267.70 767.59 258.53
  A 0.73 0.72 -21.5 0 0 766.75 258.17
  L 739.37 265.84
  A 0.48 0.47 -18.1 0 0 739.05 266.46
  Q 744.14 280.04 744.18 294.26
  Q 744.31 351.48 744.22 404.33
  A 0.44 0.43 90.0 0 0 744.65 404.77
  L 774.45 404.77
  A 0.57 0.56 -90.0 0 0 775.01 404.20
  L 775.01 302.51
  A 2.88 2.88 0.0 0 1 775.90 300.43
  Q 784.28 292.38 795.10 287.87
  C 803.41 284.40 816.04 283.20 819.93 293.17
  Q 822.17 298.92 822.19 306.53
  Q 822.33 351.26 822.24 404.32
  A 0.43 0.43 0.0 0 0 822.67 404.75
  L 852.67 404.75
  A 0.56 0.55 90.0 0 0 853.22 404.19
  Q 853.16 315.51 853.23 305.50
  Q 853.29 295.70 852.53 289.52
  C 849.89 268.19 833.26 257.35 812.64 258.73
  C 797.07 259.78 785.12 267.83 772.83 277.68
  A 0.32 0.32 0.0 0 1 772.31 277.43"
/>
<path stroke="#80a2c9" vector-effect="non-scaling-stroke" d="
  M 1652.54 277.44
  Q 1652.51 267.72 1647.82 258.56
  A 0.73 0.72 -21.5 0 0 1646.98 258.20
  L 1619.62 265.86
  A 0.48 0.47 -18.1 0 0 1619.31 266.48
  Q 1624.39 280.05 1624.43 294.26
  Q 1624.56 351.43 1624.47 404.23
  A 0.44 0.43 -90.0 0 0 1624.90 404.67
  L 1654.67 404.67
  A 0.57 0.56 -90.0 0 0 1655.23 404.10
  L 1655.23 302.50
  A 2.88 2.87 -21.9 0 1 1656.12 300.42
  Q 1664.50 292.38 1675.31 287.87
  C 1683.61 284.41 1696.23 283.21 1700.11 293.17
  Q 1702.35 298.91 1702.37 306.52
  Q 1702.51 351.21 1702.42 404.22
  A 0.43 0.43 0.0 0 0 1702.85 404.65
  L 1732.82 404.65
  A 0.56 0.55 -90.0 0 0 1733.37 404.09
  Q 1733.32 315.49 1733.39 305.49
  Q 1733.45 295.70 1732.69 289.52
  C 1730.05 268.21 1713.43 257.38 1692.83 258.76
  C 1677.28 259.81 1665.34 267.85 1653.06 277.69
  A 0.32 0.32 0.0 0 1 1652.54 277.44"
/>
<path stroke="#80a2c9" vector-effect="non-scaling-stroke" d="
  M 1792.09 277.43
  Q 1792.06 267.70 1787.38 258.53
  A 0.73 0.72 -21.5 0 0 1786.54 258.17
  L 1759.15 265.83
  A 0.48 0.47 -18.0 0 0 1758.83 266.45
  Q 1763.92 280.03 1763.95 294.25
  Q 1764.06 351.48 1763.96 404.34
  A 0.44 0.43 -90.0 0 0 1764.39 404.78
  L 1794.19 404.79
  A 0.57 0.56 -90.0 0 0 1794.75 404.22
  L 1794.78 302.52
  A 2.88 2.88 0.0 0 1 1795.67 300.44
  Q 1804.06 292.39 1814.88 287.88
  C 1823.19 284.41 1835.83 283.21 1839.71 293.19
  Q 1841.95 298.94 1841.97 306.55
  Q 1842.10 351.29 1841.99 404.36
  A 0.43 0.43 0.0 0 0 1842.42 404.79
  L 1872.42 404.79
  A 0.56 0.55 -90.0 0 0 1872.97 404.23
  Q 1872.94 315.54 1873.01 305.53
  Q 1873.08 295.73 1872.32 289.55
  C 1869.69 268.21 1853.06 257.37 1832.43 258.74
  C 1816.86 259.79 1804.91 267.83 1792.61 277.68
  A 0.32 0.32 0.0 0 1 1792.09 277.43"
/>
<path stroke="#80a2c9" vector-effect="non-scaling-stroke" d="
  M 631.73 258.77
  L 602.12 264.08
  A 0.75 0.74 85.0 0 0 601.51 264.82
  Q 601.53 294.44 601.54 361.25
  Q 601.54 369.18 602.59 377.70
  C 605.26 399.32 623.44 408.25 643.48 408.88
  Q 668.48 409.67 685.09 392.28
  A 0.42 0.42 0.0 0 1 685.79 392.44
  Q 689.05 402.78 697.41 408.87
  A 0.67 0.66 -43.5 0 0 698.17 408.88
  L 719.01 395.09
  A 0.69 0.68 -38.2 0 0 719.14 394.05
  C 712.83 387.26 710.80 376.24 710.78 366.99
  Q 710.71 340.23 710.76 259.24
  A 0.43 0.42 84.9 0 0 710.26 258.82
  L 681.14 264.04
  A 0.42 0.42 0.0 0 0 680.79 264.45
  Q 680.63 292.09 680.80 363.26
  Q 680.81 366.32 679.58 368.29
  C 673.72 377.68 662.65 384.99 651.32 384.68
  C 642.03 384.43 636.01 379.73 633.75 370.47
  Q 632.31 364.60 632.29 359.24
  Q 632.19 328.26 632.25 259.20
  A 0.44 0.44 0.0 0 0 631.73 258.77"
/>
<path stroke="#80a2c9" vector-effect="non-scaling-stroke" d="
  M 1344.33 341.82
  Q 1345.13 323.04 1342.26 306.26
  Q 1340.03 293.16 1334.72 284.25
  C 1325.49 268.76 1308.74 259.53 1290.49 258.76
  C 1276.81 258.18 1263.54 260.72 1253.17 268.42
  Q 1232.92 283.44 1227.58 308.56
  Q 1223.87 326.02 1225.67 344.35
  C 1228.22 370.47 1240.35 394.21 1265.21 403.75
  Q 1283.70 410.85 1305.42 407.06
  Q 1325.54 403.55 1341.96 389.70
  A 0.74 0.72 -37.3 0 0 1342.10 388.73
  L 1330.29 370.87
  A 0.68 0.68 0.0 0 0 1329.27 370.74
  Q 1313.41 384.93 1292.58 384.38
  C 1280.36 384.06 1269.34 378.47 1264.30 367.59
  Q 1258.97 356.08 1259.57 342.26
  A 0.25 0.24 -88.8 0 1 1259.81 342.02
  L 1344.12 342.02
  A 0.21 0.20 0.0 0 0 1344.33 341.82"
/>
<path stroke="#80a2c9" vector-effect="non-scaling-stroke" d="
  M 1400.56 404.74
  A 0.48 0.48 0.0 0 0 1401.04 404.26
  L 1401.04 259.18
  A 0.48 0.48 0.0 0 0 1400.48 258.71
  L 1369.92 264.19
  A 0.48 0.48 0.0 0 0 1369.52 264.66
  L 1369.52 404.26
  A 0.48 0.48 0.0 0 0 1370.00 404.74
  L 1400.56 404.74"
/>
<path stroke="#80a2c9" vector-effect="non-scaling-stroke" d="
  M 1593.25 404.74
  A 0.49 0.49 0.0 0 0 1593.74 404.25
  L 1593.74 259.21
  A 0.49 0.49 0.0 0 0 1593.16 258.72
  L 1562.65 264.19
  A 0.49 0.49 0.0 0 0 1562.25 264.67
  L 1562.25 404.25
  A 0.49 0.49 0.0 0 0 1562.74 404.74
  L 1593.25 404.74"
/>
<path stroke="#80a2c9" vector-effect="non-scaling-stroke" d="
  M 1934.84 404.73
  A 0.42 0.42 0.0 0 0 1935.26 404.31
  L 1935.26 259.10
  A 0.42 0.42 0.0 0 0 1934.77 258.69
  L 1904.11 264.18
  A 0.42 0.42 0.0 0 0 1903.76 264.59
  L 1903.76 404.31
  A 0.42 0.42 0.0 0 0 1904.18 404.73
  L 1934.84 404.73"
/>
<path stroke="#80a2c9" vector-effect="non-scaling-stroke" d="
  M 2232.13 341.85
  Q 2232.94 323.07 2230.08 306.29
  Q 2227.86 293.19 2222.55 284.28
  C 2213.33 268.79 2196.59 259.55 2178.35 258.77
  C 2164.67 258.18 2151.40 260.71 2141.03 268.41
  Q 2120.77 283.41 2115.42 308.53
  Q 2111.70 325.98 2113.49 344.31
  C 2116.02 370.43 2128.14 394.17 2152.99 403.72
  Q 2171.47 410.83 2193.19 407.05
  Q 2213.31 403.56 2229.73 389.72
  A 0.74 0.72 -37.3 0 0 2229.87 388.75
  L 2218.08 370.88
  A 0.68 0.68 0.0 0 0 2217.06 370.75
  Q 2201.19 384.93 2180.36 384.37
  C 2168.15 384.04 2157.13 378.45 2152.10 367.57
  Q 2146.78 356.06 2147.38 342.24
  A 0.25 0.24 -88.7 0 1 2147.62 342.00
  L 2231.92 342.05
  A 0.21 0.20 0.0 0 0 2232.13 341.85"
/>
<path stroke="#80a2c9" vector-effect="non-scaling-stroke" d="
  M 1314.37 477.75
  A 0.31 0.31 0.0 0 0 1314.11 477.90
  L 1289.31 517.60
  A 0.31 0.31 0.0 0 1 1288.74 517.44
  L 1288.74 478.05
  A 0.31 0.31 0.0 0 0 1288.43 477.74
  L 1270.32 477.74
  A 0.31 0.31 0.0 0 0 1270.01 478.05
  L 1270.01 567.95
  A 0.31 0.31 0.0 0 0 1270.32 568.26
  L 1288.43 568.26
  A 0.31 0.31 0.0 0 0 1288.74 567.95
  L 1288.74 522.38
  A 0.31 0.31 0.0 0 1 1289.32 522.22
  L 1315.80 568.09
  A 0.31 0.31 0.0 0 0 1316.07 568.25
  L 1339.73 568.25
  A 0.31 0.31 0.0 0 0 1339.99 567.77
  L 1308.24 519.79
  A 0.31 0.31 0.0 0 1 1308.24 519.45
  L 1336.65 478.24
  A 0.31 0.31 0.0 0 0 1336.39 477.75
  L 1314.37 477.75"
/>
<path stroke="#80a2c9" vector-effect="non-scaling-stroke" d="
  M 1748.65 520.02
  C 1757.46 516.59 1761.92 509.49 1761.84 500.04
  C 1761.73 486.18 1749.77 478.07 1736.99 477.83
  Q 1727.60 477.64 1702.11 477.77
  A 0.61 0.61 0.0 0 0 1701.50 478.38
  L 1701.50 567.66
  A 0.58 0.58 0.0 0 0 1702.07 568.24
  Q 1718.15 568.30 1733.76 568.21
  Q 1741.72 568.16 1746.33 567.33
  C 1758.05 565.22 1765.22 555.13 1765.34 543.24
  Q 1765.50 526.04 1748.66 520.42
  A 0.21 0.21 0.0 0 1 1748.65 520.02"
/>
<path stroke="#80a2c9" vector-effect="non-scaling-stroke" d="
  M 1485.71 514.45
  Q 1485.84 527.55 1485.76 550.00
  Q 1485.74 555.46 1486.59 558.66
  C 1489.02 567.86 1499.86 570.50 1508.36 569.60
  Q 1513.64 569.04 1518.83 567.00
  A 0.56 0.56 0.0 0 0 1519.18 566.37
  L 1517.47 556.82
  A 0.78 0.78 0.0 0 0 1516.43 556.22
  Q 1512.09 557.83 1508.20 557.17
  C 1502.60 556.22 1503.54 549.12 1503.53 545.07
  Q 1503.51 538.21 1503.51 514.38
  A 0.64 0.64 0.0 0 1 1504.15 513.74
  L 1513.96 513.74
  A 0.83 0.83 0.0 0 0 1514.74 513.20
  L 1518.82 502.10
  A 0.45 0.45 0.0 0 0 1518.40 501.49
  L 1503.98 501.49
  A 0.63 0.62 -88.7 0 1 1503.36 500.83
  L 1504.22 481.96
  A 0.54 0.54 0.0 0 0 1503.55 481.41
  L 1486.89 485.71
  A 0.74 0.73 84.3 0 0 1486.33 486.40
  L 1485.66 500.94
  A 0.59 0.58 1.5 0 1 1485.07 501.49
  L 1479.88 501.49
  A 0.66 0.66 0.0 0 0 1479.22 502.15
  L 1479.22 513.12
  A 0.61 0.61 0.0 0 0 1479.83 513.73
  L 1484.99 513.73
  A 0.72 0.72 0.0 0 1 1485.71 514.45"
/>
<path stroke="#80a2c9" vector-effect="non-scaling-stroke" d="
  M 1430.34 507.51
  A 0.38 0.37 -21.1 0 1 1429.74 507.25
  Q 1429.41 503.77 1427.68 500.44
  A 0.99 0.99 0.0 0 0 1426.53 499.94
  L 1412.09 503.98
  A 0.56 0.56 0.0 0 0 1411.70 504.67
  Q 1413.95 512.58 1413.92 521.00
  Q 1413.84 541.60 1413.91 567.73
  A 0.48 0.48 0.0 0 0 1414.39 568.21
  L 1431.11 568.21
  A 0.43 0.43 0.0 0 0 1431.54 567.78
  L 1431.56 522.09
  A 2.23 2.21 -19.6 0 1 1432.39 520.37
  C 1435.80 517.62 1440.68 514.61 1445.05 515.38
  C 1448.79 516.03 1449.21 520.26 1449.23 523.51
  Q 1449.35 541.70 1449.25 567.61
  A 0.60 0.60 0.0 0 0 1449.85 568.21
  L 1465.92 568.21
  A 0.59 0.59 0.0 0 0 1466.51 567.63
  Q 1466.56 556.62 1466.51 517.27
  Q 1466.49 505.94 1457.56 502.02
  C 1447.81 497.74 1438.28 501.65 1430.34 507.51"
/>
<path stroke="#80a2c9" vector-effect="non-scaling-stroke" d="
  M 1616.76 507.48
  A 0.38 0.37 -21.1 0 1 1616.16 507.22
  Q 1615.82 503.74 1614.09 500.40
  A 0.99 0.99 0.0 0 0 1612.94 499.90
  L 1598.47 503.95
  A 0.56 0.56 0.0 0 0 1598.08 504.64
  Q 1600.34 512.57 1600.31 521.00
  Q 1600.24 541.64 1600.32 567.81
  A 0.48 0.48 0.0 0 0 1600.80 568.29
  L 1617.55 568.29
  A 0.43 0.43 0.0 0 0 1617.98 567.86
  L 1617.98 522.09
  A 2.23 2.22 -19.6 0 1 1618.81 520.36
  C 1622.23 517.61 1627.12 514.59 1631.50 515.36
  C 1635.24 516.01 1635.66 520.25 1635.68 523.50
  Q 1635.81 541.73 1635.72 567.68
  A 0.60 0.60 0.0 0 0 1636.32 568.28
  L 1652.42 568.28
  A 0.59 0.59 0.0 0 0 1653.01 567.70
  Q 1653.06 556.67 1652.99 517.25
  Q 1652.97 505.90 1644.02 501.97
  C 1634.25 497.69 1624.71 501.61 1616.76 507.48"
/>
<path stroke="#80a2c9" vector-effect="non-scaling-stroke" d="
  M 1910.54 507.49
  A 0.38 0.37 -21.1 0 1 1909.94 507.23
  Q 1909.60 503.75 1907.88 500.41
  A 0.99 0.99 0.0 0 0 1906.73 499.91
  L 1892.27 503.95
  A 0.56 0.56 0.0 0 0 1891.88 504.64
  Q 1894.13 512.57 1894.10 520.99
  Q 1894.02 541.62 1894.08 567.77
  A 0.48 0.48 0.0 0 0 1894.56 568.25
  L 1911.30 568.26
  A 0.43 0.43 0.0 0 0 1911.73 567.83
  L 1911.75 522.09
  A 2.23 2.21 -19.6 0 1 1912.58 520.36
  C 1916.00 517.61 1920.89 514.60 1925.27 515.37
  C 1929.01 516.02 1929.42 520.26 1929.44 523.51
  Q 1929.56 541.72 1929.46 567.66
  A 0.60 0.60 0.0 0 0 1930.06 568.26
  L 1946.15 568.26
  A 0.59 0.59 0.0 0 0 1946.74 567.68
  Q 1946.79 556.66 1946.74 517.27
  Q 1946.73 505.92 1937.79 501.99
  C 1928.02 497.71 1918.49 501.62 1910.54 507.49"
/>
<path stroke="#80a2c9" vector-effect="non-scaling-stroke" d="
  M 1376.75 526.78
  C 1360.01 526.31 1341.15 529.40 1341.53 550.42
  Q 1341.75 562.50 1350.82 567.66
  C 1356.43 570.86 1364.79 571.34 1371.21 569.96
  Q 1377.15 568.68 1381.28 564.17
  A 0.51 0.51 0.0 0 1 1382.08 564.22
  Q 1385.48 569.05 1390.53 571.26
  A 1.14 1.14 0.0 0 0 1391.85 570.97
  L 1400.44 561.27
  A 0.51 0.51 0.0 0 0 1400.37 560.53
  C 1396.56 557.58 1394.45 554.51 1394.49 549.24
  Q 1394.52 546.27 1394.76 518.03
  C 1394.85 507.99 1387.69 501.82 1378.27 500.45
  C 1365.87 498.64 1353.88 502.69 1343.41 509.05
  A 0.61 0.60 59.8 0 0 1343.20 509.87
  L 1350.02 521.68
  A 0.62 0.62 0.0 0 0 1350.90 521.89
  Q 1356.43 518.19 1361.67 516.19
  C 1366.32 514.41 1376.20 512.36 1377.10 519.90
  Q 1377.55 523.66 1377.45 526.13
  A 0.68 0.67 1.7 0 1 1376.75 526.78"
/>
<path stroke="#80a2c9" vector-effect="non-scaling-stroke" d="
  M 1796.74 540.50
  L 1833.72 540.50
  A 0.44 0.44 0.0 0 0 1834.16 540.09
  C 1834.88 526.74 1833.29 508.93 1819.08 502.64
  C 1802.38 495.25 1783.13 503.05 1778.40 521.40
  C 1774.29 537.35 1777.00 559.51 1794.39 567.15
  C 1807.26 572.81 1822.49 569.97 1833.22 561.02
  A 0.69 0.69 0.0 0 0 1833.35 560.11
  L 1827.10 550.66
  A 0.64 0.64 0.0 0 0 1826.18 550.51
  C 1819.16 555.94 1805.62 560.84 1799.09 551.94
  Q 1795.72 547.34 1796.04 541.16
  A 0.70 0.69 1.3 0 1 1796.74 540.50"
/>
<path stroke="#80a2c9" vector-effect="non-scaling-stroke" d="
  M 1863.90 508.28
  L 1861.92 500.61
  A 0.92 0.92 0.0 0 0 1860.81 499.95
  L 1845.83 503.82
  A 0.57 0.56 -15.1 0 0 1845.42 504.53
  Q 1847.56 511.77 1847.65 519.75
  Q 1847.84 537.20 1847.73 567.68
  A 0.57 0.57 0.0 0 0 1848.30 568.25
  L 1864.86 568.25
  A 0.62 0.62 0.0 0 0 1865.48 567.63
  Q 1865.53 542.13 1865.49 522.02
  C 1865.49 520.21 1867.27 519.18 1868.69 518.12
  Q 1874.27 513.96 1880.58 516.70
  A 0.40 0.40 0.0 0 0 1881.12 516.46
  L 1885.97 501.92
  A 0.70 0.69 -70.9 0 0 1885.56 501.06
  C 1877.01 497.85 1869.62 501.67 1864.36 508.37
  A 0.26 0.26 0.0 0 1 1863.90 508.28"
/>
<path stroke="#80a2c9" vector-effect="non-scaling-stroke" d="
  M 1525.32 534.66
  C 1525.16 553.48 1534.54 569.40 1555.18 569.58
  C 1575.81 569.76 1585.47 554.01 1585.63 535.18
  C 1585.79 516.35 1576.41 500.43 1555.78 500.26
  C 1535.14 500.08 1525.49 515.83 1525.32 534.66"
/>
<path stroke="#80a2c9" vector-effect="non-scaling-stroke" d="
  M 957.7853 303.4722
  A 21.02 21.02 0.0 0 0 936.8021 282.4156
  L 930.4421 282.4045
  A 21.02 21.02 0.0 0 0 909.3854 303.3878
  L 909.3747 309.5478
  A 21.02 21.02 0.0 0 0 930.3579 330.6044
  L 936.7179 330.6155
  A 21.02 21.02 0.0 0 0 957.7746 309.6322
  L 957.7853 303.4722"
/>
<path stroke="#80a2c9" vector-effect="non-scaling-stroke" d="
  M 2043.68 303.48
  A 21.07 21.07 0.0 0 0 2022.61 282.41
  L 2016.33 282.41
  A 21.07 21.07 0.0 0 0 1995.26 303.48
  L 1995.26 309.56
  A 21.07 21.07 0.0 0 0 2016.33 330.63
  L 2022.61 330.63
  A 21.07 21.07 0.0 0 0 2043.68 309.56
  L 2043.68 303.48"
/>
<path stroke="#80a2c9" vector-effect="non-scaling-stroke" d="
  M 1260.28 318.97
  L 1311.60 318.97
  A 0.29 0.29 0.0 0 0 1311.89 318.68
  L 1311.89 314.35
  A 32.04 24.48 -90.0 0 0 1287.41 282.31
  L 1284.47 282.31
  A 32.04 24.48 90.0 0 0 1259.99 314.35
  L 1259.99 318.68
  A 0.29 0.29 0.0 0 0 1260.28 318.97"
/>
<path stroke="#80a2c9" vector-effect="non-scaling-stroke" d="
  M 2147.98 318.97
  L 2199.54 318.97
  A 0.21 0.21 0.0 0 0 2199.75 318.76
  L 2199.75 314.55
  A 32.24 24.51 -90.0 0 0 2175.24 282.31
  L 2172.28 282.31
  A 32.24 24.51 90.0 0 0 2147.77 314.55
  L 2147.77 318.76
  A 0.21 0.21 0.0 0 0 2147.98 318.97"
/>
<path stroke="#80a2c9" vector-effect="non-scaling-stroke" d="
  M 1719.74 494.03
  L 1719.78 513.25
  A 0.54 0.54 0.0 0 0 1720.32 513.79
  L 1732.93 513.77
  A 9.92 9.75 89.9 0 0 1742.66 503.83
  L 1742.66 503.37
  A 9.92 9.75 89.9 0 0 1732.89 493.47
  L 1720.28 493.49
  A 0.54 0.54 0.0 0 0 1719.74 494.03"
/>
<path stroke="#80a2c9" vector-effect="non-scaling-stroke" d="
  M 1720.02 529.20
  L 1719.98 552.78
  A 0.32 0.32 0.0 0 0 1720.30 553.10
  L 1733.52 553.12
  A 11.33 11.00 -89.9 0 0 1744.54 541.81
  L 1744.54 540.25
  A 11.33 11.00 -89.9 0 0 1733.56 528.90
  L 1720.34 528.88
  A 0.32 0.32 0.0 0 0 1720.02 529.20"
/>
<path stroke="#80a2c9" vector-effect="non-scaling-stroke" d="
  M 1376.50 539.09
  Q 1371.37 538.90 1366.27 540.23
  C 1354.49 543.30 1361.37 566.55 1376.16 554.00
  A 2.47 2.43 70.1 0 0 1377.02 552.13
  L 1377.02 539.63
  A 0.54 0.54 0.0 0 0 1376.50 539.09"
/>
<path stroke="#80a2c9" vector-effect="non-scaling-stroke" d="
  M 1796.86 527.40
  L 1815.62 527.56
  A 0.44 0.44 0.0 0 0 1816.06 527.13
  L 1816.08 524.41
  A 11.32 9.29 -89.5 0 0 1806.89 513.00
  L 1805.83 513.00
  A 11.32 9.29 -89.5 0 0 1796.44 524.23
  L 1796.42 526.95
  A 0.44 0.44 0.0 0 0 1796.86 527.40"
/>
<path stroke="#80a2c9" vector-effect="non-scaling-stroke" d="
  M 1544.73 534.96
  C 1544.70 542.31 1544.94 556.75 1555.49 556.79
  C 1566.04 556.84 1566.40 542.40 1566.43 535.05
  C 1566.46 527.71 1566.22 513.27 1555.67 513.23
  C 1545.13 513.18 1544.77 527.62 1544.73 534.96"
/>
</g>
<path fill="#ffffff" d="
  M 2398.00 0.00
  L 2398.00 658.00
  L 0.00 658.00
  L 0.00 0.00
  L 2398.00 0.00
  Z
  M 413.13 152.36
  A 0.41 0.41 0.0 0 0 412.42 152.07
  Q 373.79 192.30 335.69 228.94
  Q 313.88 249.91 293.59 267.59
  C 279.95 279.48 267.25 289.92 251.71 298.05
  C 238.57 304.93 225.11 310.64 210.84 313.30
  C 191.97 316.83 172.62 312.43 169.86 290.19
  C 168.00 275.17 174.91 258.47 182.49 245.73
  C 214.03 192.73 280.22 170.16 337.61 195.21
  A 1.22 1.20 34.1 0 0 338.95 194.96
  L 350.56 183.42
  A 0.54 0.53 35.4 0 0 350.41 182.56
  Q 334.61 174.97 316.89 171.13
  C 228.70 152.00 147.06 222.14 148.53 310.97
  C 149.07 343.92 161.81 375.13 182.37 401.04
  A 0.51 0.50 -41.5 0 0 183.13 401.08
  L 412.69 173.09
  A 1.52 1.50 67.9 0 0 413.13 172.02
  L 413.13 152.36
  Z
  M 1596.18 212.26
  A 17.88 17.88 0.0 0 0 1578.30 194.38
  A 17.88 17.88 0.0 0 0 1560.42 212.26
  A 17.88 17.88 0.0 0 0 1578.30 230.14
  A 17.88 17.88 0.0 0 0 1596.18 212.26
  Z
  M 1937.53 212.25
  A 17.89 17.89 0.0 0 0 1919.64 194.36
  A 17.89 17.89 0.0 0 0 1901.75 212.25
  A 17.89 17.89 0.0 0 0 1919.64 230.14
  A 17.89 17.89 0.0 0 0 1937.53 212.25
  Z
  M 1403.42 213.50
  A 17.89 17.89 0.0 0 0 1385.53 195.61
  A 17.89 17.89 0.0 0 0 1367.64 213.50
  A 17.89 17.89 0.0 0 0 1385.53 231.39
  A 17.89 17.89 0.0 0 0 1403.42 213.50
  Z
  M 1078.05 261.34
  Q 1077.97 250.83 1078.02 242.25
  Q 1078.07 235.70 1078.81 233.30
  Q 1083.20 219.12 1098.58 220.93
  C 1103.87 221.55 1109.23 224.37 1112.21 225.53
  A 0.65 0.65 0.0 0 0 1113.03 225.21
  L 1122.39 206.33
  A 0.84 0.84 0.0 0 0 1122.03 205.22
  C 1105.02 196.23 1081.04 194.14 1064.81 203.95
  C 1044.72 216.09 1046.18 240.61 1047.81 261.42
  A 0.53 0.52 -2.0 0 1 1047.28 261.98
  L 1034.53 261.98
  A 0.55 0.55 0.0 0 0 1033.98 262.53
  L 1033.98 283.24
  A 0.52 0.52 0.0 0 0 1034.50 283.76
  L 1046.64 283.76
  A 0.60 0.60 0.0 0 1 1047.24 284.36
  L 1047.24 404.16
  A 0.58 0.58 0.0 0 0 1047.82 404.74
  L 1077.84 404.74
  A 0.41 0.40 -0.0 0 0 1078.25 404.34
  L 1078.25 284.07
  A 0.30 0.30 0.0 0 1 1078.55 283.77
  L 1106.65 283.77
  A 0.82 0.81 -79.5 0 0 1107.41 283.24
  L 1114.92 262.82
  A 0.62 0.61 10.2 0 0 1114.34 261.99
  L 1078.70 261.99
  A 0.65 0.65 0.0 0 1 1078.05 261.34
  Z
  M 569.14 209.75
  L 537.30 209.75
  A 0.34 0.33 90.0 0 0 536.97 210.09
  Q 537.04 265.53 536.98 369.75
  Q 536.98 379.50 536.51 387.75
  Q 536.08 395.54 534.91 400.41
  C 531.91 412.87 521.27 423.00 510.43 429.18
  A 0.65 0.65 0.0 0 0 510.27 430.18
  L 524.83 446.57
  A 0.72 0.72 0.0 0 0 525.63 446.77
  Q 537.00 442.44 546.63 434.93
  Q 565.77 420.00 568.45 396.31
  Q 569.70 385.21 569.71 379.00
  Q 569.77 332.78 569.72 210.33
  A 0.58 0.58 0.0 0 0 569.14 209.75
  Z
  M 356.65 238.01
  A 0.31 0.30 23.4 0 0 356.36 238.12
  L 206.85 421.30
  A 0.96 0.95 49.4 0 0 206.77 422.38
  Q 206.80 422.43 207.12 422.63
  C 250.04 449.05 304.76 454.37 350.32 432.36
  C 402.14 407.33 433.18 352.41 428.31 295.65
  Q 424.84 255.06 399.39 221.34
  A 0.57 0.57 0.0 0 0 398.51 221.31
  L 387.59 233.65
  A 0.70 0.69 49.2 0 0 387.53 234.50
  Q 390.72 239.17 391.27 240.00
  C 408.28 265.83 414.91 296.82 409.75 327.16
  Q 402.91 367.43 371.85 396.58
  C 360.06 407.65 344.11 418.23 327.74 419.29
  C 316.53 420.02 303.41 415.78 296.13 407.12
  C 285.92 394.97 283.72 377.39 287.37 362.10
  Q 290.80 347.75 299.81 335.81
  Q 335.46 288.58 356.13 260.61
  A 4.56 4.52 -26.9 0 0 357.03 257.90
  Q 357.09 248.40 357.03 238.50
  Q 357.02 238.07 356.65 238.01
  Z
  M 983.28 284.19
  C 996.23 286.27 1007.27 284.73 1017.19 276.10
  A 0.68 0.67 51.7 0 0 1017.29 275.20
  L 1003.49 256.50
  A 0.71 0.70 51.5 0 0 1002.47 256.38
  C 992.98 264.40 980.27 267.99 968.13 264.75
  Q 955.55 261.39 951.81 260.57
  C 920.61 253.77 880.03 264.61 877.02 302.42
  C 875.26 324.59 886.42 340.56 907.80 346.87
  A 0.34 0.34 0.0 0 1 907.80 347.53
  C 894.01 351.67 879.99 358.26 882.42 375.61
  C 884.00 386.83 894.69 390.43 904.50 391.87
  Q 916.20 393.60 931.34 393.48
  C 937.12 393.44 943.06 393.77 949.32 394.81
  C 958.48 396.33 967.12 400.15 968.16 410.53
  C 969.71 426.11 956.06 433.17 942.87 434.60
  C 924.05 436.64 896.01 432.40 905.60 404.99
  A 0.37 0.37 0.0 0 0 905.25 404.50
  L 876.90 404.50
  A 0.78 0.78 0.0 0 0 876.16 405.03
  Q 872.82 414.79 873.65 423.50
  C 876.96 457.98 926.62 460.78 951.47 457.87
  C 975.37 455.07 997.64 443.18 1000.34 417.33
  C 1003.24 389.55 983.93 372.64 957.59 371.39
  C 948.05 370.93 934.49 371.47 923.54 370.40
  Q 922.04 370.26 919.26 368.99
  A 1.70 1.68 -89.7 0 1 918.40 368.11
  C 915.12 360.65 930.83 354.35 935.96 352.45
  A 6.40 6.29 -54.5 0 1 938.12 352.07
  C 969.29 352.26 998.75 331.16 989.28 296.41
  Q 988.29 292.79 983.01 284.59
  A 0.27 0.26 -11.7 0 1 983.28 284.19
  Z
  M 2069.16 284.19
  C 2082.11 286.27 2093.14 284.73 2103.06 276.10
  A 0.68 0.67 51.6 0 0 2103.16 275.20
  L 2089.36 256.51
  A 0.71 0.70 51.5 0 0 2088.34 256.39
  C 2078.86 264.41 2066.15 268.00 2054.01 264.76
  Q 2041.43 261.40 2037.69 260.58
  C 2006.50 253.78 1965.92 264.63 1962.92 302.43
  C 1961.16 324.60 1972.32 340.56 1993.70 346.87
  A 0.34 0.34 0.0 0 1 1993.70 347.53
  C 1979.91 351.67 1965.89 358.26 1968.33 375.61
  C 1969.91 386.83 1980.59 390.42 1990.40 391.86
  Q 2002.10 393.59 2017.24 393.47
  C 2023.02 393.43 2028.96 393.76 2035.22 394.80
  C 2044.37 396.32 2053.01 400.14 2054.05 410.51
  C 2055.61 426.09 2041.96 433.15 2028.77 434.58
  C 2009.95 436.62 1981.92 432.39 1991.50 404.98
  A 0.37 0.37 0.0 0 0 1991.15 404.49
  L 1962.81 404.49
  A 0.78 0.78 0.0 0 0 1962.07 405.02
  Q 1958.73 414.78 1959.56 423.49
  C 1962.87 457.96 2012.53 460.76 2037.37 457.85
  C 2061.27 455.05 2083.53 443.15 2086.23 417.31
  C 2089.13 389.53 2069.82 372.63 2043.48 371.38
  C 2033.94 370.92 2020.39 371.46 2009.44 370.39
  Q 2007.94 370.25 2005.16 368.99
  A 1.70 1.68 -89.7 0 1 2004.30 368.11
  C 2001.02 360.65 2016.72 354.35 2021.85 352.45
  A 6.40 6.29 -54.5 0 1 2024.01 352.07
  C 2055.18 352.25 2084.63 331.15 2075.16 296.41
  Q 2074.17 292.79 2068.89 284.59
  A 0.27 0.26 -11.7 0 1 2069.16 284.19
  Z
  M 1432.68 370.75
  L 1422.07 392.14
  A 0.85 0.85 0.0 0 0 1422.47 393.28
  Q 1423.44 393.75 1429.65 396.83
  C 1447.68 405.77 1467.37 410.27 1487.68 407.88
  C 1511.66 405.05 1532.86 389.16 1534.30 363.50
  C 1535.56 340.97 1523.55 327.71 1502.09 321.41
  Q 1498.15 320.26 1478.30 315.22
  C 1470.68 313.29 1461.78 309.71 1461.31 300.35
  C 1460.76 289.18 1469.00 281.59 1479.76 280.99
  C 1492.86 280.25 1505.40 284.60 1516.78 290.93
  A 0.82 0.81 -62.4 0 0 1517.91 290.57
  L 1527.88 270.47
  A 0.69 0.69 0.0 0 0 1527.59 269.56
  Q 1503.24 255.94 1475.51 257.45
  C 1445.32 259.09 1422.61 281.06 1428.87 312.22
  C 1431.91 327.35 1444.62 337.87 1459.24 341.28
  Q 1468.02 343.33 1480.17 345.85
  C 1491.58 348.22 1503.08 353.15 1501.96 367.07
  C 1500.93 379.89 1489.09 385.82 1477.46 385.23
  C 1461.87 384.43 1447.07 378.30 1433.32 370.55
  A 0.46 0.46 0.0 0 0 1432.68 370.75
  Z
  M 1165.46 279.43
  Q 1165.06 268.46 1160.43 258.81
  A 0.72 0.71 -19.6 0 0 1159.61 258.43
  L 1131.85 265.59
  A 0.41 0.40 -16.5 0 0 1131.56 266.11
  C 1135.84 278.78 1136.59 292.26 1136.53 306.84
  Q 1136.48 317.66 1136.51 404.45
  A 0.28 0.28 0.0 0 0 1136.79 404.73
  L 1167.46 404.73
  A 0.32 0.31 -90.0 0 0 1167.77 404.41
  Q 1167.77 330.73 1167.77 310.00
  Q 1167.77 306.99 1169.33 303.82
  C 1175.24 291.78 1189.02 283.71 1202.19 289.07
  A 0.97 0.96 -70.0 0 0 1203.47 288.47
  L 1212.65 260.92
  A 0.76 0.75 19.8 0 0 1212.20 259.98
  C 1193.43 252.98 1176.54 265.18 1166.18 279.65
  A 0.40 0.40 0.0 0 1 1165.46 279.43
  Z
  M 772.31 277.43
  Q 772.28 267.70 767.59 258.53
  A 0.73 0.72 -21.5 0 0 766.75 258.17
  L 739.37 265.84
  A 0.48 0.47 -18.1 0 0 739.05 266.46
  Q 744.14 280.04 744.18 294.26
  Q 744.31 351.48 744.22 404.33
  A 0.44 0.43 90.0 0 0 744.65 404.77
  L 774.45 404.77
  A 0.57 0.56 -90.0 0 0 775.01 404.20
  L 775.01 302.51
  A 2.88 2.88 0.0 0 1 775.90 300.43
  Q 784.28 292.38 795.10 287.87
  C 803.41 284.40 816.04 283.20 819.93 293.17
  Q 822.17 298.92 822.19 306.53
  Q 822.33 351.26 822.24 404.32
  A 0.43 0.43 0.0 0 0 822.67 404.75
  L 852.67 404.75
  A 0.56 0.55 90.0 0 0 853.22 404.19
  Q 853.16 315.51 853.23 305.50
  Q 853.29 295.70 852.53 289.52
  C 849.89 268.19 833.26 257.35 812.64 258.73
  C 797.07 259.78 785.12 267.83 772.83 277.68
  A 0.32 0.32 0.0 0 1 772.31 277.43
  Z
  M 1652.54 277.44
  Q 1652.51 267.72 1647.82 258.56
  A 0.73 0.72 -21.5 0 0 1646.98 258.20
  L 1619.62 265.86
  A 0.48 0.47 -18.1 0 0 1619.31 266.48
  Q 1624.39 280.05 1624.43 294.26
  Q 1624.56 351.43 1624.47 404.23
  A 0.44 0.43 -90.0 0 0 1624.90 404.67
  L 1654.67 404.67
  A 0.57 0.56 -90.0 0 0 1655.23 404.10
  L 1655.23 302.50
  A 2.88 2.87 -21.9 0 1 1656.12 300.42
  Q 1664.50 292.38 1675.31 287.87
  C 1683.61 284.41 1696.23 283.21 1700.11 293.17
  Q 1702.35 298.91 1702.37 306.52
  Q 1702.51 351.21 1702.42 404.22
  A 0.43 0.43 0.0 0 0 1702.85 404.65
  L 1732.82 404.65
  A 0.56 0.55 -90.0 0 0 1733.37 404.09
  Q 1733.32 315.49 1733.39 305.49
  Q 1733.45 295.70 1732.69 289.52
  C 1730.05 268.21 1713.43 257.38 1692.83 258.76
  C 1677.28 259.81 1665.34 267.85 1653.06 277.69
  A 0.32 0.32 0.0 0 1 1652.54 277.44
  Z
  M 1792.09 277.43
  Q 1792.06 267.70 1787.38 258.53
  A 0.73 0.72 -21.5 0 0 1786.54 258.17
  L 1759.15 265.83
  A 0.48 0.47 -18.0 0 0 1758.83 266.45
  Q 1763.92 280.03 1763.95 294.25
  Q 1764.06 351.48 1763.96 404.34
  A 0.44 0.43 -90.0 0 0 1764.39 404.78
  L 1794.19 404.79
  A 0.57 0.56 -90.0 0 0 1794.75 404.22
  L 1794.78 302.52
  A 2.88 2.88 0.0 0 1 1795.67 300.44
  Q 1804.06 292.39 1814.88 287.88
  C 1823.19 284.41 1835.83 283.21 1839.71 293.19
  Q 1841.95 298.94 1841.97 306.55
  Q 1842.10 351.29 1841.99 404.36
  A 0.43 0.43 0.0 0 0 1842.42 404.79
  L 1872.42 404.79
  A 0.56 0.55 -90.0 0 0 1872.97 404.23
  Q 1872.94 315.54 1873.01 305.53
  Q 1873.08 295.73 1872.32 289.55
  C 1869.69 268.21 1853.06 257.37 1832.43 258.74
  C 1816.86 259.79 1804.91 267.83 1792.61 277.68
  A 0.32 0.32 0.0 0 1 1792.09 277.43
  Z
  M 631.73 258.77
  L 602.12 264.08
  A 0.75 0.74 85.0 0 0 601.51 264.82
  Q 601.53 294.44 601.54 361.25
  Q 601.54 369.18 602.59 377.70
  C 605.26 399.32 623.44 408.25 643.48 408.88
  Q 668.48 409.67 685.09 392.28
  A 0.42 0.42 0.0 0 1 685.79 392.44
  Q 689.05 402.78 697.41 408.87
  A 0.67 0.66 -43.5 0 0 698.17 408.88
  L 719.01 395.09
  A 0.69 0.68 -38.2 0 0 719.14 394.05
  C 712.83 387.26 710.80 376.24 710.78 366.99
  Q 710.71 340.23 710.76 259.24
  A 0.43 0.42 84.9 0 0 710.26 258.82
  L 681.14 264.04
  A 0.42 0.42 0.0 0 0 680.79 264.45
  Q 680.63 292.09 680.80 363.26
  Q 680.81 366.32 679.58 368.29
  C 673.72 377.68 662.65 384.99 651.32 384.68
  C 642.03 384.43 636.01 379.73 633.75 370.47
  Q 632.31 364.60 632.29 359.24
  Q 632.19 328.26 632.25 259.20
  A 0.44 0.44 0.0 0 0 631.73 258.77
  Z
  M 1344.33 341.82
  Q 1345.13 323.04 1342.26 306.26
  Q 1340.03 293.16 1334.72 284.25
  C 1325.49 268.76 1308.74 259.53 1290.49 258.76
  C 1276.81 258.18 1263.54 260.72 1253.17 268.42
  Q 1232.92 283.44 1227.58 308.56
  Q 1223.87 326.02 1225.67 344.35
  C 1228.22 370.47 1240.35 394.21 1265.21 403.75
  Q 1283.70 410.85 1305.42 407.06
  Q 1325.54 403.55 1341.96 389.70
  A 0.74 0.72 -37.3 0 0 1342.10 388.73
  L 1330.29 370.87
  A 0.68 0.68 0.0 0 0 1329.27 370.74
  Q 1313.41 384.93 1292.58 384.38
  C 1280.36 384.06 1269.34 378.47 1264.30 367.59
  Q 1258.97 356.08 1259.57 342.26
  A 0.25 0.24 -88.8 0 1 1259.81 342.02
  L 1344.12 342.02
  A 0.21 0.20 0.0 0 0 1344.33 341.82
  Z
  M 1400.56 404.74
  A 0.48 0.48 0.0 0 0 1401.04 404.26
  L 1401.04 259.18
  A 0.48 0.48 0.0 0 0 1400.48 258.71
  L 1369.92 264.19
  A 0.48 0.48 0.0 0 0 1369.52 264.66
  L 1369.52 404.26
  A 0.48 0.48 0.0 0 0 1370.00 404.74
  L 1400.56 404.74
  Z
  M 1593.25 404.74
  A 0.49 0.49 0.0 0 0 1593.74 404.25
  L 1593.74 259.21
  A 0.49 0.49 0.0 0 0 1593.16 258.72
  L 1562.65 264.19
  A 0.49 0.49 0.0 0 0 1562.25 264.67
  L 1562.25 404.25
  A 0.49 0.49 0.0 0 0 1562.74 404.74
  L 1593.25 404.74
  Z
  M 1934.84 404.73
  A 0.42 0.42 0.0 0 0 1935.26 404.31
  L 1935.26 259.10
  A 0.42 0.42 0.0 0 0 1934.77 258.69
  L 1904.11 264.18
  A 0.42 0.42 0.0 0 0 1903.76 264.59
  L 1903.76 404.31
  A 0.42 0.42 0.0 0 0 1904.18 404.73
  L 1934.84 404.73
  Z
  M 2232.13 341.85
  Q 2232.94 323.07 2230.08 306.29
  Q 2227.86 293.19 2222.55 284.28
  C 2213.33 268.79 2196.59 259.55 2178.35 258.77
  C 2164.67 258.18 2151.40 260.71 2141.03 268.41
  Q 2120.77 283.41 2115.42 308.53
  Q 2111.70 325.98 2113.49 344.31
  C 2116.02 370.43 2128.14 394.17 2152.99 403.72
  Q 2171.47 410.83 2193.19 407.05
  Q 2213.31 403.56 2229.73 389.72
  A 0.74 0.72 -37.3 0 0 2229.87 388.75
  L 2218.08 370.88
  A 0.68 0.68 0.0 0 0 2217.06 370.75
  Q 2201.19 384.93 2180.36 384.37
  C 2168.15 384.04 2157.13 378.45 2152.10 367.57
  Q 2146.78 356.06 2147.38 342.24
  A 0.25 0.24 -88.7 0 1 2147.62 342.00
  L 2231.92 342.05
  A 0.21 0.20 0.0 0 0 2232.13 341.85
  Z
  M 1314.37 477.75
  A 0.31 0.31 0.0 0 0 1314.11 477.90
  L 1289.31 517.60
  A 0.31 0.31 0.0 0 1 1288.74 517.44
  L 1288.74 478.05
  A 0.31 0.31 0.0 0 0 1288.43 477.74
  L 1270.32 477.74
  A 0.31 0.31 0.0 0 0 1270.01 478.05
  L 1270.01 567.95
  A 0.31 0.31 0.0 0 0 1270.32 568.26
  L 1288.43 568.26
  A 0.31 0.31 0.0 0 0 1288.74 567.95
  L 1288.74 522.38
  A 0.31 0.31 0.0 0 1 1289.32 522.22
  L 1315.80 568.09
  A 0.31 0.31 0.0 0 0 1316.07 568.25
  L 1339.73 568.25
  A 0.31 0.31 0.0 0 0 1339.99 567.77
  L 1308.24 519.79
  A 0.31 0.31 0.0 0 1 1308.24 519.45
  L 1336.65 478.24
  A 0.31 0.31 0.0 0 0 1336.39 477.75
  L 1314.37 477.75
  Z
  M 1748.65 520.02
  C 1757.46 516.59 1761.92 509.49 1761.84 500.04
  C 1761.73 486.18 1749.77 478.07 1736.99 477.83
  Q 1727.60 477.64 1702.11 477.77
  A 0.61 0.61 0.0 0 0 1701.50 478.38
  L 1701.50 567.66
  A 0.58 0.58 0.0 0 0 1702.07 568.24
  Q 1718.15 568.30 1733.76 568.21
  Q 1741.72 568.16 1746.33 567.33
  C 1758.05 565.22 1765.22 555.13 1765.34 543.24
  Q 1765.50 526.04 1748.66 520.42
  A 0.21 0.21 0.0 0 1 1748.65 520.02
  Z
  M 1485.71 514.45
  Q 1485.84 527.55 1485.76 550.00
  Q 1485.74 555.46 1486.59 558.66
  C 1489.02 567.86 1499.86 570.50 1508.36 569.60
  Q 1513.64 569.04 1518.83 567.00
  A 0.56 0.56 0.0 0 0 1519.18 566.37
  L 1517.47 556.82
  A 0.78 0.78 0.0 0 0 1516.43 556.22
  Q 1512.09 557.83 1508.20 557.17
  C 1502.60 556.22 1503.54 549.12 1503.53 545.07
  Q 1503.51 538.21 1503.51 514.38
  A 0.64 0.64 0.0 0 1 1504.15 513.74
  L 1513.96 513.74
  A 0.83 0.83 0.0 0 0 1514.74 513.20
  L 1518.82 502.10
  A 0.45 0.45 0.0 0 0 1518.40 501.49
  L 1503.98 501.49
  A 0.63 0.62 -88.7 0 1 1503.36 500.83
  L 1504.22 481.96
  A 0.54 0.54 0.0 0 0 1503.55 481.41
  L 1486.89 485.71
  A 0.74 0.73 84.3 0 0 1486.33 486.40
  L 1485.66 500.94
  A 0.59 0.58 1.5 0 1 1485.07 501.49
  L 1479.88 501.49
  A 0.66 0.66 0.0 0 0 1479.22 502.15
  L 1479.22 513.12
  A 0.61 0.61 0.0 0 0 1479.83 513.73
  L 1484.99 513.73
  A 0.72 0.72 0.0 0 1 1485.71 514.45
  Z
  M 1430.34 507.51
  A 0.38 0.37 -21.1 0 1 1429.74 507.25
  Q 1429.41 503.77 1427.68 500.44
  A 0.99 0.99 0.0 0 0 1426.53 499.94
  L 1412.09 503.98
  A 0.56 0.56 0.0 0 0 1411.70 504.67
  Q 1413.95 512.58 1413.92 521.00
  Q 1413.84 541.60 1413.91 567.73
  A 0.48 0.48 0.0 0 0 1414.39 568.21
  L 1431.11 568.21
  A 0.43 0.43 0.0 0 0 1431.54 567.78
  L 1431.56 522.09
  A 2.23 2.21 -19.6 0 1 1432.39 520.37
  C 1435.80 517.62 1440.68 514.61 1445.05 515.38
  C 1448.79 516.03 1449.21 520.26 1449.23 523.51
  Q 1449.35 541.70 1449.25 567.61
  A 0.60 0.60 0.0 0 0 1449.85 568.21
  L 1465.92 568.21
  A 0.59 0.59 0.0 0 0 1466.51 567.63
  Q 1466.56 556.62 1466.51 517.27
  Q 1466.49 505.94 1457.56 502.02
  C 1447.81 497.74 1438.28 501.65 1430.34 507.51
  Z
  M 1616.76 507.48
  A 0.38 0.37 -21.1 0 1 1616.16 507.22
  Q 1615.82 503.74 1614.09 500.40
  A 0.99 0.99 0.0 0 0 1612.94 499.90
  L 1598.47 503.95
  A 0.56 0.56 0.0 0 0 1598.08 504.64
  Q 1600.34 512.57 1600.31 521.00
  Q 1600.24 541.64 1600.32 567.81
  A 0.48 0.48 0.0 0 0 1600.80 568.29
  L 1617.55 568.29
  A 0.43 0.43 0.0 0 0 1617.98 567.86
  L 1617.98 522.09
  A 2.23 2.22 -19.6 0 1 1618.81 520.36
  C 1622.23 517.61 1627.12 514.59 1631.50 515.36
  C 1635.24 516.01 1635.66 520.25 1635.68 523.50
  Q 1635.81 541.73 1635.72 567.68
  A 0.60 0.60 0.0 0 0 1636.32 568.28
  L 1652.42 568.28
  A 0.59 0.59 0.0 0 0 1653.01 567.70
  Q 1653.06 556.67 1652.99 517.25
  Q 1652.97 505.90 1644.02 501.97
  C 1634.25 497.69 1624.71 501.61 1616.76 507.48
  Z
  M 1910.54 507.49
  A 0.38 0.37 -21.1 0 1 1909.94 507.23
  Q 1909.60 503.75 1907.88 500.41
  A 0.99 0.99 0.0 0 0 1906.73 499.91
  L 1892.27 503.95
  A 0.56 0.56 0.0 0 0 1891.88 504.64
  Q 1894.13 512.57 1894.10 520.99
  Q 1894.02 541.62 1894.08 567.77
  A 0.48 0.48 0.0 0 0 1894.56 568.25
  L 1911.30 568.26
  A 0.43 0.43 0.0 0 0 1911.73 567.83
  L 1911.75 522.09
  A 2.23 2.21 -19.6 0 1 1912.58 520.36
  C 1916.00 517.61 1920.89 514.60 1925.27 515.37
  C 1929.01 516.02 1929.42 520.26 1929.44 523.51
  Q 1929.56 541.72 1929.46 567.66
  A 0.60 0.60 0.0 0 0 1930.06 568.26
  L 1946.15 568.26
  A 0.59 0.59 0.0 0 0 1946.74 567.68
  Q 1946.79 556.66 1946.74 517.27
  Q 1946.73 505.92 1937.79 501.99
  C 1928.02 497.71 1918.49 501.62 1910.54 507.49
  Z
  M 1376.75 526.78
  C 1360.01 526.31 1341.15 529.40 1341.53 550.42
  Q 1341.75 562.50 1350.82 567.66
  C 1356.43 570.86 1364.79 571.34 1371.21 569.96
  Q 1377.15 568.68 1381.28 564.17
  A 0.51 0.51 0.0 0 1 1382.08 564.22
  Q 1385.48 569.05 1390.53 571.26
  A 1.14 1.14 0.0 0 0 1391.85 570.97
  L 1400.44 561.27
  A 0.51 0.51 0.0 0 0 1400.37 560.53
  C 1396.56 557.58 1394.45 554.51 1394.49 549.24
  Q 1394.52 546.27 1394.76 518.03
  C 1394.85 507.99 1387.69 501.82 1378.27 500.45
  C 1365.87 498.64 1353.88 502.69 1343.41 509.05
  A 0.61 0.60 59.8 0 0 1343.20 509.87
  L 1350.02 521.68
  A 0.62 0.62 0.0 0 0 1350.90 521.89
  Q 1356.43 518.19 1361.67 516.19
  C 1366.32 514.41 1376.20 512.36 1377.10 519.90
  Q 1377.55 523.66 1377.45 526.13
  A 0.68 0.67 1.7 0 1 1376.75 526.78
  Z
  M 1796.74 540.50
  L 1833.72 540.50
  A 0.44 0.44 0.0 0 0 1834.16 540.09
  C 1834.88 526.74 1833.29 508.93 1819.08 502.64
  C 1802.38 495.25 1783.13 503.05 1778.40 521.40
  C 1774.29 537.35 1777.00 559.51 1794.39 567.15
  C 1807.26 572.81 1822.49 569.97 1833.22 561.02
  A 0.69 0.69 0.0 0 0 1833.35 560.11
  L 1827.10 550.66
  A 0.64 0.64 0.0 0 0 1826.18 550.51
  C 1819.16 555.94 1805.62 560.84 1799.09 551.94
  Q 1795.72 547.34 1796.04 541.16
  A 0.70 0.69 1.3 0 1 1796.74 540.50
  Z
  M 1863.90 508.28
  L 1861.92 500.61
  A 0.92 0.92 0.0 0 0 1860.81 499.95
  L 1845.83 503.82
  A 0.57 0.56 -15.1 0 0 1845.42 504.53
  Q 1847.56 511.77 1847.65 519.75
  Q 1847.84 537.20 1847.73 567.68
  A 0.57 0.57 0.0 0 0 1848.30 568.25
  L 1864.86 568.25
  A 0.62 0.62 0.0 0 0 1865.48 567.63
  Q 1865.53 542.13 1865.49 522.02
  C 1865.49 520.21 1867.27 519.18 1868.69 518.12
  Q 1874.27 513.96 1880.58 516.70
  A 0.40 0.40 0.0 0 0 1881.12 516.46
  L 1885.97 501.92
  A 0.70 0.69 -70.9 0 0 1885.56 501.06
  C 1877.01 497.85 1869.62 501.67 1864.36 508.37
  A 0.26 0.26 0.0 0 1 1863.90 508.28
  Z
  M 1525.32 534.66
  C 1525.16 553.48 1534.54 569.40 1555.18 569.58
  C 1575.81 569.76 1585.47 554.01 1585.63 535.18
  C 1585.79 516.35 1576.41 500.43 1555.78 500.26
  C 1535.14 500.08 1525.49 515.83 1525.32 534.66
  Z"
/>
<path fill="#014493" d="
  M 413.13 152.36
  L 413.13 172.02
  A 1.52 1.50 67.9 0 1 412.69 173.09
  L 183.13 401.08
  A 0.51 0.50 -41.5 0 1 182.37 401.04
  C 161.81 375.13 149.07 343.92 148.53 310.97
  C 147.06 222.14 228.70 152.00 316.89 171.13
  Q 334.61 174.97 350.41 182.56
  A 0.54 0.53 35.4 0 1 350.56 183.42
  L 338.95 194.96
  A 1.22 1.20 34.1 0 1 337.61 195.21
  C 280.22 170.16 214.03 192.73 182.49 245.73
  C 174.91 258.47 168.00 275.17 169.86 290.19
  C 172.62 312.43 191.97 316.83 210.84 313.30
  C 225.11 310.64 238.57 304.93 251.71 298.05
  C 267.25 289.92 279.95 279.48 293.59 267.59
  Q 313.88 249.91 335.69 228.94
  Q 373.79 192.30 412.42 152.07
  A 0.41 0.41 0.0 0 1 413.13 152.36
  Z"
/>
<circle fill="#014493" cx="1578.30" cy="212.26" r="17.88"/>
<circle fill="#014493" cx="1919.64" cy="212.25" r="17.89"/>
<circle fill="#014493" cx="1385.53" cy="213.50" r="17.89"/>
<path fill="#014493" d="
  M 1078.70 261.99
  L 1114.34 261.99
  A 0.62 0.61 10.2 0 1 1114.92 262.82
  L 1107.41 283.24
  A 0.82 0.81 -79.5 0 1 1106.65 283.77
  L 1078.55 283.77
  A 0.30 0.30 0.0 0 0 1078.25 284.07
  L 1078.25 404.34
  A 0.41 0.40 -0.0 0 1 1077.84 404.74
  L 1047.82 404.74
  A 0.58 0.58 0.0 0 1 1047.24 404.16
  L 1047.24 284.36
  A 0.60 0.60 0.0 0 0 1046.64 283.76
  L 1034.50 283.76
  A 0.52 0.52 0.0 0 1 1033.98 283.24
  L 1033.98 262.53
  A 0.55 0.55 0.0 0 1 1034.53 261.98
  L 1047.28 261.98
  A 0.53 0.52 -2.0 0 0 1047.81 261.42
  C 1046.18 240.61 1044.72 216.09 1064.81 203.95
  C 1081.04 194.14 1105.02 196.23 1122.03 205.22
  A 0.84 0.84 0.0 0 1 1122.39 206.33
  L 1113.03 225.21
  A 0.65 0.65 0.0 0 1 1112.21 225.53
  C 1109.23 224.37 1103.87 221.55 1098.58 220.93
  Q 1083.20 219.12 1078.81 233.30
  Q 1078.07 235.70 1078.02 242.25
  Q 1077.97 250.83 1078.05 261.34
  A 0.65 0.65 0.0 0 0 1078.70 261.99
  Z"
/>
<path fill="#014493" d="
  M 569.14 209.75
  A 0.58 0.58 0.0 0 1 569.72 210.33
  Q 569.77 332.78 569.71 379.00
  Q 569.70 385.21 568.45 396.31
  Q 565.77 420.00 546.63 434.93
  Q 537.00 442.44 525.63 446.77
  A 0.72 0.72 0.0 0 1 524.83 446.57
  L 510.27 430.18
  A 0.65 0.65 0.0 0 1 510.43 429.18
  C 521.27 423.00 531.91 412.87 534.91 400.41
  Q 536.08 395.54 536.51 387.75
  Q 536.98 379.50 536.98 369.75
  Q 537.04 265.53 536.97 210.09
  A 0.34 0.33 -90.0 0 1 537.30 209.75
  L 569.14 209.75
  Z"
/>
<path fill="#cd1344" d="
  M 356.65 238.01
  Q 357.02 238.07 357.03 238.50
  Q 357.09 248.40 357.03 257.90
  A 4.56 4.52 -26.9 0 1 356.13 260.61
  Q 335.46 288.58 299.81 335.81
  Q 290.80 347.75 287.37 362.10
  C 283.72 377.39 285.92 394.97 296.13 407.12
  C 303.41 415.78 316.53 420.02 327.74 419.29
  C 344.11 418.23 360.06 407.65 371.85 396.58
  Q 402.91 367.43 409.75 327.16
  C 414.91 296.82 408.28 265.83 391.27 240.00
  Q 390.72 239.17 387.53 234.50
  A 0.70 0.69 49.2 0 1 387.59 233.65
  L 398.51 221.31
  A 0.57 0.57 0.0 0 1 399.39 221.34
  Q 424.84 255.06 428.31 295.65
  C 433.18 352.41 402.14 407.33 350.32 432.36
  C 304.76 454.37 250.04 449.05 207.12 422.63
  Q 206.80 422.43 206.77 422.38
  A 0.96 0.95 49.4 0 1 206.85 421.30
  L 356.36 238.12
  A 0.31 0.30 23.4 0 1 356.65 238.01
  Z"
/>
<path fill="#014493" d="
  M 983.28 284.19
  A 0.27 0.26 -11.7 0 0 983.01 284.59
  Q 988.29 292.79 989.28 296.41
  C 998.75 331.16 969.29 352.26 938.12 352.07
  A 6.40 6.29 -54.5 0 0 935.96 352.45
  C 930.83 354.35 915.12 360.65 918.40 368.11
  A 1.70 1.68 -89.7 0 0 919.26 368.99
  Q 922.04 370.26 923.54 370.40
  C 934.49 371.47 948.05 370.93 957.59 371.39
  C 983.93 372.64 1003.24 389.55 1000.34 417.33
  C 997.64 443.18 975.37 455.07 951.47 457.87
  C 926.62 460.78 876.96 457.98 873.65 423.50
  Q 872.82 414.79 876.16 405.03
  A 0.78 0.78 0.0 0 1 876.90 404.50
  L 905.25 404.50
  A 0.37 0.37 0.0 0 1 905.60 404.99
  C 896.01 432.40 924.05 436.64 942.87 434.60
  C 956.06 433.17 969.71 426.11 968.16 410.53
  C 967.12 400.15 958.48 396.33 949.32 394.81
  C 943.06 393.77 937.12 393.44 931.34 393.48
  Q 916.20 393.60 904.50 391.87
  C 894.69 390.43 884.00 386.83 882.42 375.61
  C 879.99 358.26 894.01 351.67 907.80 347.53
  A 0.34 0.34 0.0 0 0 907.80 346.87
  C 886.42 340.56 875.26 324.59 877.02 302.42
  C 880.03 264.61 920.61 253.77 951.81 260.57
  Q 955.55 261.39 968.13 264.75
  C 980.27 267.99 992.98 264.40 1002.47 256.38
  A 0.71 0.70 51.5 0 1 1003.49 256.50
  L 1017.29 275.20
  A 0.68 0.67 51.7 0 1 1017.19 276.10
  C 1007.27 284.73 996.23 286.27 983.28 284.19
  Z
  M 957.7853 303.4722
  A 21.02 21.02 0.0 0 0 936.8021 282.4156
  L 930.4421 282.4045
  A 21.02 21.02 0.0 0 0 909.3854 303.3878
  L 909.3747 309.5478
  A 21.02 21.02 0.0 0 0 930.3579 330.6044
  L 936.7179 330.6155
  A 21.02 21.02 0.0 0 0 957.7746 309.6322
  L 957.7853 303.4722
  Z"
/>
<path fill="#014493" d="
  M 2068.89 284.59
  Q 2074.17 292.79 2075.16 296.41
  C 2084.63 331.15 2055.18 352.25 2024.01 352.07
  A 6.40 6.29 -54.5 0 0 2021.85 352.45
  C 2016.72 354.35 2001.02 360.65 2004.30 368.11
  A 1.70 1.68 -89.7 0 0 2005.16 368.99
  Q 2007.94 370.25 2009.44 370.39
  C 2020.39 371.46 2033.94 370.92 2043.48 371.38
  C 2069.82 372.63 2089.13 389.53 2086.23 417.31
  C 2083.53 443.15 2061.27 455.05 2037.37 457.85
  C 2012.53 460.76 1962.87 457.96 1959.56 423.49
  Q 1958.73 414.78 1962.07 405.02
  A 0.78 0.78 0.0 0 1 1962.81 404.49
  L 1991.15 404.49
  A 0.37 0.37 0.0 0 1 1991.50 404.98
  C 1981.92 432.39 2009.95 436.62 2028.77 434.58
  C 2041.96 433.15 2055.61 426.09 2054.05 410.51
  C 2053.01 400.14 2044.37 396.32 2035.22 394.80
  C 2028.96 393.76 2023.02 393.43 2017.24 393.47
  Q 2002.10 393.59 1990.40 391.86
  C 1980.59 390.42 1969.91 386.83 1968.33 375.61
  C 1965.89 358.26 1979.91 351.67 1993.70 347.53
  A 0.34 0.34 0.0 0 0 1993.70 346.87
  C 1972.32 340.56 1961.16 324.60 1962.92 302.43
  C 1965.92 264.63 2006.50 253.78 2037.69 260.58
  Q 2041.43 261.40 2054.01 264.76
  C 2066.15 268.00 2078.86 264.41 2088.34 256.39
  A 0.71 0.70 51.5 0 1 2089.36 256.51
  L 2103.16 275.20
  A 0.68 0.67 51.6 0 1 2103.06 276.10
  C 2093.14 284.73 2082.11 286.27 2069.16 284.19
  A 0.27 0.26 -11.7 0 0 2068.89 284.59
  Z
  M 2043.68 303.48
  A 21.07 21.07 0.0 0 0 2022.61 282.41
  L 2016.33 282.41
  A 21.07 21.07 0.0 0 0 1995.26 303.48
  L 1995.26 309.56
  A 21.07 21.07 0.0 0 0 2016.33 330.63
  L 2022.61 330.63
  A 21.07 21.07 0.0 0 0 2043.68 309.56
  L 2043.68 303.48
  Z"
/>
<path fill="#014493" d="
  M 1432.68 370.75
  A 0.46 0.46 0.0 0 1 1433.32 370.55
  C 1447.07 378.30 1461.87 384.43 1477.46 385.23
  C 1489.09 385.82 1500.93 379.89 1501.96 367.07
  C 1503.08 353.15 1491.58 348.22 1480.17 345.85
  Q 1468.02 343.33 1459.24 341.28
  C 1444.62 337.87 1431.91 327.35 1428.87 312.22
  C 1422.61 281.06 1445.32 259.09 1475.51 257.45
  Q 1503.24 255.94 1527.59 269.56
  A 0.69 0.69 0.0 0 1 1527.88 270.47
  L 1517.91 290.57
  A 0.82 0.81 -62.4 0 1 1516.78 290.93
  C 1505.40 284.60 1492.86 280.25 1479.76 280.99
  C 1469.00 281.59 1460.76 289.18 1461.31 300.35
  C 1461.78 309.71 1470.68 313.29 1478.30 315.22
  Q 1498.15 320.26 1502.09 321.41
  C 1523.55 327.71 1535.56 340.97 1534.30 363.50
  C 1532.86 389.16 1511.66 405.05 1487.68 407.88
  C 1467.37 410.27 1447.68 405.77 1429.65 396.83
  Q 1423.44 393.75 1422.47 393.28
  A 0.85 0.85 0.0 0 1 1422.07 392.14
  L 1432.68 370.75
  Z"
/>
<path fill="#014493" d="
  M 1165.46 279.43
  A 0.40 0.40 0.0 0 0 1166.18 279.65
  C 1176.54 265.18 1193.43 252.98 1212.20 259.98
  A 0.76 0.75 19.8 0 1 1212.65 260.92
  L 1203.47 288.47
  A 0.97 0.96 -70.0 0 1 1202.19 289.07
  C 1189.02 283.71 1175.24 291.78 1169.33 303.82
  Q 1167.77 306.99 1167.77 310.00
  Q 1167.77 330.73 1167.77 404.41
  A 0.32 0.31 90.0 0 1 1167.46 404.73
  L 1136.79 404.73
  A 0.28 0.28 0.0 0 1 1136.51 404.45
  Q 1136.48 317.66 1136.53 306.84
  C 1136.59 292.26 1135.84 278.78 1131.56 266.11
  A 0.41 0.40 -16.5 0 1 1131.85 265.59
  L 1159.61 258.43
  A 0.72 0.71 -19.6 0 1 1160.43 258.81
  Q 1165.06 268.46 1165.46 279.43
  Z"
/>
<path fill="#014493" d="
  M 772.31 277.43
  A 0.32 0.32 0.0 0 0 772.83 277.68
  C 785.12 267.83 797.07 259.78 812.64 258.73
  C 833.26 257.35 849.89 268.19 852.53 289.52
  Q 853.29 295.70 853.23 305.50
  Q 853.16 315.51 853.22 404.19
  A 0.56 0.55 90.0 0 1 852.67 404.75
  L 822.67 404.75
  A 0.43 0.43 0.0 0 1 822.24 404.32
  Q 822.33 351.26 822.19 306.53
  Q 822.17 298.92 819.93 293.17
  C 816.04 283.20 803.41 284.40 795.10 287.87
  Q 784.28 292.38 775.90 300.43
  A 2.88 2.88 0.0 0 0 775.01 302.51
  L 775.01 404.20
  A 0.57 0.56 90.0 0 1 774.45 404.77
  L 744.65 404.77
  A 0.44 0.43 -90.0 0 1 744.22 404.33
  Q 744.31 351.48 744.18 294.26
  Q 744.14 280.04 739.05 266.46
  A 0.48 0.47 -18.1 0 1 739.37 265.84
  L 766.75 258.17
  A 0.73 0.72 -21.5 0 1 767.59 258.53
  Q 772.28 267.70 772.31 277.43
  Z"
/>
<path fill="#014493" d="
  M 1652.54 277.44
  A 0.32 0.32 0.0 0 0 1653.06 277.69
  C 1665.34 267.85 1677.28 259.81 1692.83 258.76
  C 1713.43 257.38 1730.05 268.21 1732.69 289.52
  Q 1733.45 295.70 1733.39 305.49
  Q 1733.32 315.49 1733.37 404.09
  A 0.56 0.55 -90.0 0 1 1732.82 404.65
  L 1702.85 404.65
  A 0.43 0.43 0.0 0 1 1702.42 404.22
  Q 1702.51 351.21 1702.37 306.52
  Q 1702.35 298.91 1700.11 293.17
  C 1696.23 283.21 1683.61 284.41 1675.31 287.87
  Q 1664.50 292.38 1656.12 300.42
  A 2.88 2.87 -21.9 0 0 1655.23 302.50
  L 1655.23 404.10
  A 0.57 0.56 -90.0 0 1 1654.67 404.67
  L 1624.90 404.67
  A 0.44 0.43 -90.0 0 1 1624.47 404.23
  Q 1624.56 351.43 1624.43 294.26
  Q 1624.39 280.05 1619.31 266.48
  A 0.48 0.47 -18.1 0 1 1619.62 265.86
  L 1646.98 258.20
  A 0.73 0.72 -21.5 0 1 1647.82 258.56
  Q 1652.51 267.72 1652.54 277.44
  Z"
/>
<path fill="#014493" d="
  M 1792.09 277.43
  A 0.32 0.32 0.0 0 0 1792.61 277.68
  C 1804.91 267.83 1816.86 259.79 1832.43 258.74
  C 1853.06 257.37 1869.69 268.21 1872.32 289.55
  Q 1873.08 295.73 1873.01 305.53
  Q 1872.94 315.54 1872.97 404.23
  A 0.56 0.55 -90.0 0 1 1872.42 404.79
  L 1842.42 404.79
  A 0.43 0.43 0.0 0 1 1841.99 404.36
  Q 1842.10 351.29 1841.97 306.55
  Q 1841.95 298.94 1839.71 293.19
  C 1835.83 283.21 1823.19 284.41 1814.88 287.88
  Q 1804.06 292.39 1795.67 300.44
  A 2.88 2.88 0.0 0 0 1794.78 302.52
  L 1794.75 404.22
  A 0.57 0.56 -90.0 0 1 1794.19 404.79
  L 1764.39 404.78
  A 0.44 0.43 -90.0 0 1 1763.96 404.34
  Q 1764.06 351.48 1763.95 294.25
  Q 1763.92 280.03 1758.83 266.45
  A 0.48 0.47 -18.0 0 1 1759.15 265.83
  L 1786.54 258.17
  A 0.73 0.72 -21.5 0 1 1787.38 258.53
  Q 1792.06 267.70 1792.09 277.43
  Z"
/>
<path fill="#014493" d="
  M 631.73 258.77
  A 0.44 0.44 0.0 0 1 632.25 259.20
  Q 632.19 328.26 632.29 359.24
  Q 632.31 364.60 633.75 370.47
  C 636.01 379.73 642.03 384.43 651.32 384.68
  C 662.65 384.99 673.72 377.68 679.58 368.29
  Q 680.81 366.32 680.80 363.26
  Q 680.63 292.09 680.79 264.45
  A 0.42 0.42 0.0 0 1 681.14 264.04
  L 710.26 258.82
  A 0.43 0.42 84.9 0 1 710.76 259.24
  Q 710.71 340.23 710.78 366.99
  C 710.80 376.24 712.83 387.26 719.14 394.05
  A 0.69 0.68 -38.2 0 1 719.01 395.09
  L 698.17 408.88
  A 0.67 0.66 -43.5 0 1 697.41 408.87
  Q 689.05 402.78 685.79 392.44
  A 0.42 0.42 0.0 0 0 685.09 392.28
  Q 668.48 409.67 643.48 408.88
  C 623.44 408.25 605.26 399.32 602.59 377.70
  Q 601.54 369.18 601.54 361.25
  Q 601.53 294.44 601.51 264.82
  A 0.75 0.74 85.0 0 1 602.12 264.08
  L 631.73 258.77
  Z"
/>
<path fill="#014493" d="
  M 1344.33 341.82
  A 0.21 0.20 -0.0 0 1 1344.12 342.02
  L 1259.81 342.02
  A 0.25 0.24 -88.8 0 0 1259.57 342.26
  Q 1258.97 356.08 1264.30 367.59
  C 1269.34 378.47 1280.36 384.06 1292.58 384.38
  Q 1313.41 384.93 1329.27 370.74
  A 0.68 0.68 0.0 0 1 1330.29 370.87
  L 1342.10 388.73
  A 0.74 0.72 -37.3 0 1 1341.96 389.70
  Q 1325.54 403.55 1305.42 407.06
  Q 1283.70 410.85 1265.21 403.75
  C 1240.35 394.21 1228.22 370.47 1225.67 344.35
  Q 1223.87 326.02 1227.58 308.56
  Q 1232.92 283.44 1253.17 268.42
  C 1263.54 260.72 1276.81 258.18 1290.49 258.76
  C 1308.74 259.53 1325.49 268.76 1334.72 284.25
  Q 1340.03 293.16 1342.26 306.26
  Q 1345.13 323.04 1344.33 341.82
  Z
  M 1260.28 318.97
  L 1311.60 318.97
  A 0.29 0.29 0.0 0 0 1311.89 318.68
  L 1311.89 314.35
  A 32.04 24.48 -90.0 0 0 1287.41 282.31
  L 1284.47 282.31
  A 32.04 24.48 90.0 0 0 1259.99 314.35
  L 1259.99 318.68
  A 0.29 0.29 0.0 0 0 1260.28 318.97
  Z"
/>
<path fill="#014493" d="
  M 1400.56 404.74
  L 1370.00 404.74
  A 0.48 0.48 0.0 0 1 1369.52 404.26
  L 1369.52 264.66
  A 0.48 0.48 0.0 0 1 1369.92 264.19
  L 1400.48 258.71
  A 0.48 0.48 0.0 0 1 1401.04 259.18
  L 1401.04 404.26
  A 0.48 0.48 0.0 0 1 1400.56 404.74
  Z"
/>
<path fill="#014493" d="
  M 1593.25 404.74
  L 1562.74 404.74
  A 0.49 0.49 0.0 0 1 1562.25 404.25
  L 1562.25 264.67
  A 0.49 0.49 0.0 0 1 1562.65 264.19
  L 1593.16 258.72
  A 0.49 0.49 0.0 0 1 1593.74 259.21
  L 1593.74 404.25
  A 0.49 0.49 0.0 0 1 1593.25 404.74
  Z"
/>
<path fill="#014493" d="
  M 1934.84 404.73
  L 1904.18 404.73
  A 0.42 0.42 0.0 0 1 1903.76 404.31
  L 1903.76 264.59
  A 0.42 0.42 0.0 0 1 1904.11 264.18
  L 1934.77 258.69
  A 0.42 0.42 0.0 0 1 1935.26 259.10
  L 1935.26 404.31
  A 0.42 0.42 0.0 0 1 1934.84 404.73
  Z"
/>
<path fill="#014493" d="
  M 2232.13 341.85
  A 0.21 0.20 0.0 0 1 2231.92 342.05
  L 2147.62 342.00
  A 0.25 0.24 -88.7 0 0 2147.38 342.24
  Q 2146.78 356.06 2152.10 367.57
  C 2157.13 378.45 2168.15 384.04 2180.36 384.37
  Q 2201.19 384.93 2217.06 370.75
  A 0.68 0.68 0.0 0 1 2218.08 370.88
  L 2229.87 388.75
  A 0.74 0.72 -37.3 0 1 2229.73 389.72
  Q 2213.31 403.56 2193.19 407.05
  Q 2171.47 410.83 2152.99 403.72
  C 2128.14 394.17 2116.02 370.43 2113.49 344.31
  Q 2111.70 325.98 2115.42 308.53
  Q 2120.77 283.41 2141.03 268.41
  C 2151.40 260.71 2164.67 258.18 2178.35 258.77
  C 2196.59 259.55 2213.33 268.79 2222.55 284.28
  Q 2227.86 293.19 2230.08 306.29
  Q 2232.94 323.07 2232.13 341.85
  Z
  M 2147.98 318.97
  L 2199.54 318.97
  A 0.21 0.21 0.0 0 0 2199.75 318.76
  L 2199.75 314.55
  A 32.24 24.51 -90.0 0 0 2175.24 282.31
  L 2172.28 282.31
  A 32.24 24.51 90.0 0 0 2147.77 314.55
  L 2147.77 318.76
  A 0.21 0.21 0.0 0 0 2147.98 318.97
  Z"
/>
<rect fill="#ffffff" x="-24.20" y="-24.10" transform="translate(933.58,306.51) rotate(0.1)" width="48.40" height="48.20" rx="21.02"/>
<path fill="#ffffff" d="
  M 1260.28 318.97
  A 0.29 0.29 0.0 0 1 1259.99 318.68
  L 1259.99 314.35
  A 32.04 24.48 -90.0 0 1 1284.47 282.31
  L 1287.41 282.31
  A 32.04 24.48 -90.0 0 1 1311.89 314.35
  L 1311.89 318.68
  A 0.29 0.29 0.0 0 1 1311.60 318.97
  L 1260.28 318.97
  Z"
/>
<rect fill="#ffffff" x="1995.26" y="282.41" width="48.42" height="48.22" rx="21.07"/>
<path fill="#ffffff" d="
  M 2147.98 318.97
  A 0.21 0.21 0.0 0 1 2147.77 318.76
  L 2147.77 314.55
  A 32.24 24.51 90.0 0 1 2172.28 282.31
  L 2175.24 282.31
  A 32.24 24.51 90.0 0 1 2199.75 314.55
  L 2199.75 318.76
  A 0.21 0.21 0.0 0 1 2199.54 318.97
  L 2147.98 318.97
  Z"
/>
<path fill="#014493" d="
  M 1314.37 477.75
  L 1336.39 477.75
  A 0.31 0.31 0.0 0 1 1336.65 478.24
  L 1308.24 519.45
  A 0.31 0.31 0.0 0 0 1308.24 519.79
  L 1339.99 567.77
  A 0.31 0.31 0.0 0 1 1339.73 568.25
  L 1316.07 568.25
  A 0.31 0.31 0.0 0 1 1315.80 568.09
  L 1289.32 522.22
  A 0.31 0.31 0.0 0 0 1288.74 522.38
  L 1288.74 567.95
  A 0.31 0.31 0.0 0 1 1288.43 568.26
  L 1270.32 568.26
  A 0.31 0.31 0.0 0 1 1270.01 567.95
  L 1270.01 478.05
  A 0.31 0.31 0.0 0 1 1270.32 477.74
  L 1288.43 477.74
  A 0.31 0.31 0.0 0 1 1288.74 478.05
  L 1288.74 517.44
  A 0.31 0.31 0.0 0 0 1289.31 517.60
  L 1314.11 477.90
  A 0.31 0.31 0.0 0 1 1314.37 477.75
  Z"
/>
<path fill="#014493" d="
  M 1748.65 520.02
  A 0.21 0.21 0.0 0 0 1748.66 520.42
  Q 1765.50 526.04 1765.34 543.24
  C 1765.22 555.13 1758.05 565.22 1746.33 567.33
  Q 1741.72 568.16 1733.76 568.21
  Q 1718.15 568.30 1702.07 568.24
  A 0.58 0.58 0.0 0 1 1701.50 567.66
  L 1701.50 478.38
  A 0.61 0.61 0.0 0 1 1702.11 477.77
  Q 1727.60 477.64 1736.99 477.83
  C 1749.77 478.07 1761.73 486.18 1761.84 500.04
  C 1761.92 509.49 1757.46 516.59 1748.65 520.02
  Z
  M 1719.74 494.03
  L 1719.78 513.25
  A 0.54 0.54 0.0 0 0 1720.32 513.79
  L 1732.93 513.77
  A 9.92 9.75 89.9 0 0 1742.66 503.83
  L 1742.66 503.37
  A 9.92 9.75 89.9 0 0 1732.89 493.47
  L 1720.28 493.49
  A 0.54 0.54 0.0 0 0 1719.74 494.03
  Z
  M 1720.02 529.20
  L 1719.98 552.78
  A 0.32 0.32 0.0 0 0 1720.30 553.10
  L 1733.52 553.12
  A 11.33 11.00 -89.9 0 0 1744.54 541.81
  L 1744.54 540.25
  A 11.33 11.00 -89.9 0 0 1733.56 528.90
  L 1720.34 528.88
  A 0.32 0.32 0.0 0 0 1720.02 529.20
  Z"
/>
<path fill="#014493" d="
  M 1484.99 513.73
  L 1479.83 513.73
  A 0.61 0.61 0.0 0 1 1479.22 513.12
  L 1479.22 502.15
  A 0.66 0.66 0.0 0 1 1479.88 501.49
  L 1485.07 501.49
  A 0.59 0.58 1.5 0 0 1485.66 500.94
  L 1486.33 486.40
  A 0.74 0.73 84.3 0 1 1486.89 485.71
  L 1503.55 481.41
  A 0.54 0.54 0.0 0 1 1504.22 481.96
  L 1503.36 500.83
  A 0.63 0.62 -88.7 0 0 1503.98 501.49
  L 1518.40 501.49
  A 0.45 0.45 0.0 0 1 1518.82 502.10
  L 1514.74 513.20
  A 0.83 0.83 0.0 0 1 1513.96 513.74
  L 1504.15 513.74
  A 0.64 0.64 0.0 0 0 1503.51 514.38
  Q 1503.51 538.21 1503.53 545.07
  C 1503.54 549.12 1502.60 556.22 1508.20 557.17
  Q 1512.09 557.83 1516.43 556.22
  A 0.78 0.78 0.0 0 1 1517.47 556.82
  L 1519.18 566.37
  A 0.56 0.56 0.0 0 1 1518.83 567.00
  Q 1513.64 569.04 1508.36 569.60
  C 1499.86 570.50 1489.02 567.86 1486.59 558.66
  Q 1485.74 555.46 1485.76 550.00
  Q 1485.84 527.55 1485.71 514.45
  A 0.72 0.72 0.0 0 0 1484.99 513.73
  Z"
/>
<path fill="#ffffff" d="
  M 1719.74 494.03
  A 0.54 0.54 0.0 0 1 1720.28 493.49
  L 1732.89 493.47
  A 9.92 9.75 89.9 0 1 1742.66 503.37
  L 1742.66 503.83
  A 9.92 9.75 89.9 0 1 1732.93 513.77
  L 1720.32 513.79
  A 0.54 0.54 0.0 0 1 1719.78 513.25
  L 1719.74 494.03
  Z"
/>
<path fill="#014493" d="
  M 1430.34 507.51
  C 1438.28 501.65 1447.81 497.74 1457.56 502.02
  Q 1466.49 505.94 1466.51 517.27
  Q 1466.56 556.62 1466.51 567.63
  A 0.59 0.59 0.0 0 1 1465.92 568.21
  L 1449.85 568.21
  A 0.60 0.60 0.0 0 1 1449.25 567.61
  Q 1449.35 541.70 1449.23 523.51
  C 1449.21 520.26 1448.79 516.03 1445.05 515.38
  C 1440.68 514.61 1435.80 517.62 1432.39 520.37
  A 2.23 2.21 -19.6 0 0 1431.56 522.09
  L 1431.54 567.78
  A 0.43 0.43 0.0 0 1 1431.11 568.21
  L 1414.39 568.21
  A 0.48 0.48 0.0 0 1 1413.91 567.73
  Q 1413.84 541.60 1413.92 521.00
  Q 1413.95 512.58 1411.70 504.67
  A 0.56 0.56 0.0 0 1 1412.09 503.98
  L 1426.53 499.94
  A 0.99 0.99 0.0 0 1 1427.68 500.44
  Q 1429.41 503.77 1429.74 507.25
  A 0.38 0.37 -21.1 0 0 1430.34 507.51
  Z"
/>
<path fill="#014493" d="
  M 1616.76 507.48
  C 1624.71 501.61 1634.25 497.69 1644.02 501.97
  Q 1652.97 505.90 1652.99 517.25
  Q 1653.06 556.67 1653.01 567.70
  A 0.59 0.59 0.0 0 1 1652.42 568.28
  L 1636.32 568.28
  A 0.60 0.60 0.0 0 1 1635.72 567.68
  Q 1635.81 541.73 1635.68 523.50
  C 1635.66 520.25 1635.24 516.01 1631.50 515.36
  C 1627.12 514.59 1622.23 517.61 1618.81 520.36
  A 2.23 2.22 -19.6 0 0 1617.98 522.09
  L 1617.98 567.86
  A 0.43 0.43 0.0 0 1 1617.55 568.29
  L 1600.80 568.29
  A 0.48 0.48 0.0 0 1 1600.32 567.81
  Q 1600.24 541.64 1600.31 521.00
  Q 1600.34 512.57 1598.08 504.64
  A 0.56 0.56 0.0 0 1 1598.47 503.95
  L 1612.94 499.90
  A 0.99 0.99 0.0 0 1 1614.09 500.40
  Q 1615.82 503.74 1616.16 507.22
  A 0.38 0.37 -21.1 0 0 1616.76 507.48
  Z"
/>
<path fill="#014493" d="
  M 1910.54 507.49
  C 1918.49 501.62 1928.02 497.71 1937.79 501.99
  Q 1946.73 505.92 1946.74 517.27
  Q 1946.79 556.66 1946.74 567.68
  A 0.59 0.59 0.0 0 1 1946.15 568.26
  L 1930.06 568.26
  A 0.60 0.60 0.0 0 1 1929.46 567.66
  Q 1929.56 541.72 1929.44 523.51
  C 1929.42 520.26 1929.01 516.02 1925.27 515.37
  C 1920.89 514.60 1916.00 517.61 1912.58 520.36
  A 2.23 2.21 -19.6 0 0 1911.75 522.09
  L 1911.73 567.83
  A 0.43 0.43 0.0 0 1 1911.30 568.26
  L 1894.56 568.25
  A 0.48 0.48 0.0 0 1 1894.08 567.77
  Q 1894.02 541.62 1894.10 520.99
  Q 1894.13 512.57 1891.88 504.64
  A 0.56 0.56 0.0 0 1 1892.27 503.95
  L 1906.73 499.91
  A 0.99 0.99 0.0 0 1 1907.88 500.41
  Q 1909.60 503.75 1909.94 507.23
  A 0.38 0.37 -21.1 0 0 1910.54 507.49
  Z"
/>
<path fill="#014493" d="
  M 1377.45 526.13
  Q 1377.55 523.66 1377.10 519.90
  C 1376.20 512.36 1366.32 514.41 1361.67 516.19
  Q 1356.43 518.19 1350.90 521.89
  A 0.62 0.62 0.0 0 1 1350.02 521.68
  L 1343.20 509.87
  A 0.61 0.60 59.8 0 1 1343.41 509.05
  C 1353.88 502.69 1365.87 498.64 1378.27 500.45
  C 1387.69 501.82 1394.85 507.99 1394.76 518.03
  Q 1394.52 546.27 1394.49 549.24
  C 1394.45 554.51 1396.56 557.58 1400.37 560.53
  A 0.51 0.51 0.0 0 1 1400.44 561.27
  L 1391.85 570.97
  A 1.14 1.14 0.0 0 1 1390.53 571.26
  Q 1385.48 569.05 1382.08 564.22
  A 0.51 0.51 0.0 0 0 1381.28 564.17
  Q 1377.15 568.68 1371.21 569.96
  C 1364.79 571.34 1356.43 570.86 1350.82 567.66
  Q 1341.75 562.50 1341.53 550.42
  C 1341.15 529.40 1360.01 526.31 1376.75 526.78
  A 0.68 0.67 1.7 0 0 1377.45 526.13
  Z
  M 1376.50 539.09
  Q 1371.37 538.90 1366.27 540.23
  C 1354.49 543.30 1361.37 566.55 1376.16 554.00
  A 2.47 2.43 70.1 0 0 1377.02 552.13
  L 1377.02 539.63
  A 0.54 0.54 0.0 0 0 1376.50 539.09
  Z"
/>
<path fill="#014493" d="
  M 1796.04 541.16
  Q 1795.72 547.34 1799.09 551.94
  C 1805.62 560.84 1819.16 555.94 1826.18 550.51
  A 0.64 0.64 0.0 0 1 1827.10 550.66
  L 1833.35 560.11
  A 0.69 0.69 0.0 0 1 1833.22 561.02
  C 1822.49 569.97 1807.26 572.81 1794.39 567.15
  C 1777.00 559.51 1774.29 537.35 1778.40 521.40
  C 1783.13 503.05 1802.38 495.25 1819.08 502.64
  C 1833.29 508.93 1834.88 526.74 1834.16 540.09
  A 0.44 0.44 0.0 0 1 1833.72 540.50
  L 1796.74 540.50
  A 0.70 0.69 1.3 0 0 1796.04 541.16
  Z
  M 1796.86 527.40
  L 1815.62 527.56
  A 0.44 0.44 0.0 0 0 1816.06 527.13
  L 1816.08 524.41
  A 11.32 9.29 -89.5 0 0 1806.89 513.00
  L 1805.83 513.00
  A 11.32 9.29 -89.5 0 0 1796.44 524.23
  L 1796.42 526.95
  A 0.44 0.44 0.0 0 0 1796.86 527.40
  Z"
/>
<path fill="#014493" d="
  M 1863.90 508.28
  A 0.26 0.26 0.0 0 0 1864.36 508.37
  C 1869.62 501.67 1877.01 497.85 1885.56 501.06
  A 0.70 0.69 -70.9 0 1 1885.97 501.92
  L 1881.12 516.46
  A 0.40 0.40 0.0 0 1 1880.58 516.70
  Q 1874.27 513.96 1868.69 518.12
  C 1867.27 519.18 1865.49 520.21 1865.49 522.02
  Q 1865.53 542.13 1865.48 567.63
  A 0.62 0.62 0.0 0 1 1864.86 568.25
  L 1848.30 568.25
  A 0.57 0.57 0.0 0 1 1847.73 567.68
  Q 1847.84 537.20 1847.65 519.75
  Q 1847.56 511.77 1845.42 504.53
  A 0.57 0.56 -15.1 0 1 1845.83 503.82
  L 1860.81 499.95
  A 0.92 0.92 0.0 0 1 1861.92 500.61
  L 1863.90 508.28
  Z"
/>
<path fill="#014493" d="
  M 1555.78 500.26
  C 1576.41 500.43 1585.79 516.35 1585.63 535.18
  C 1585.47 554.01 1575.81 569.76 1555.18 569.58
  C 1534.54 569.40 1525.16 553.48 1525.32 534.66
  C 1525.49 515.83 1535.14 500.08 1555.78 500.26
  Z
  M 1544.73 534.96
  C 1544.70 542.31 1544.94 556.75 1555.49 556.79
  C 1566.04 556.84 1566.40 542.40 1566.43 535.05
  C 1566.46 527.71 1566.22 513.27 1555.67 513.23
  C 1545.13 513.18 1544.77 527.62 1544.73 534.96
  Z"
/>
<path fill="#ffffff" d="
  M 1796.86 527.40
  A 0.44 0.44 0.0 0 1 1796.42 526.95
  L 1796.44 524.23
  A 11.32 9.29 -89.5 0 1 1805.83 513.00
  L 1806.89 513.00
  A 11.32 9.29 -89.5 0 1 1816.08 524.41
  L 1816.06 527.13
  A 0.44 0.44 0.0 0 1 1815.62 527.56
  L 1796.86 527.40
  Z"
/>
<path fill="#ffffff" d="
  M 1555.67 513.23
  C 1566.22 513.27 1566.46 527.71 1566.43 535.05
  C 1566.40 542.40 1566.04 556.84 1555.49 556.79
  C 1544.94 556.75 1544.70 542.31 1544.73 534.96
  C 1544.77 527.62 1545.13 513.18 1555.67 513.23
  Z"
/>
<path fill="#ffffff" d="
  M 1720.02 529.20
  A 0.32 0.32 0.0 0 1 1720.34 528.88
  L 1733.56 528.90
  A 11.33 11.00 -89.9 0 1 1744.54 540.25
  L 1744.54 541.81
  A 11.33 11.00 -89.9 0 1 1733.52 553.12
  L 1720.30 553.10
  A 0.32 0.32 0.0 0 1 1719.98 552.78
  L 1720.02 529.20
  Z"
/>
<path fill="#ffffff" d="
  M 1377.02 539.63
  L 1377.02 552.13
  A 2.47 2.43 70.1 0 1 1376.16 554.00
  C 1361.37 566.55 1354.49 543.30 1366.27 540.23
  Q 1371.37 538.90 1376.50 539.09
  A 0.54 0.54 0.0 0 1 1377.02 539.63
  Z"
/>
</svg>
